<?xml version="1.0" standalone="no"?>
<!DOCTYPE svg PUBLIC "-//W3C//DTD SVG 1.1//EN" "http://www.w3.org/Graphics/SVG/1.1/DTD/svg11.dtd" >
<svg xmlns="http://www.w3.org/2000/svg" xmlns:xlink="http://www.w3.org/1999/xlink" version="1.1">
<metadata>
Created by FontForge 20170731 at Wed Aug  4 11:08:56 2021
 By Aleksey,,,
Copyright (c) 2015 Indian Type Foundry (info@indiantypefoundry.com)
</metadata>
<defs>
<font id="HindSiliguriNFLight" horiz-adv-x="1308" >
  <font-face 
    font-family="Hind Siliguri NF"
    font-weight="500"
    font-stretch="normal"
    units-per-em="2048"
    panose-1="0 0 0 0 0 0 0 0 0 0"
    ascent="1638"
    descent="-410"
    x-height="1038"
    cap-height="1380"
    bbox="-745 -1026 2562 1892"
    underline-thickness="102"
    underline-position="-307"
    unicode-range="U+0020-25CC"
  />
<missing-glyph horiz-adv-x="935" 
d="M41 1382h854v-1382h-854v1382zM139 98h656v1186h-656v-1186z" />
    <glyph glyph-name=".notdef" horiz-adv-x="935" 
d="M41 1382h854v-1382h-854v1382zM139 98h656v1186h-656v-1186z" />
    <glyph glyph-name=".notdef" horiz-adv-x="935" 
d="M41 1382h854v-1382h-854v1382zM139 98h656v1186h-656v-1186z" />
    <glyph glyph-name=".null" horiz-adv-x="0" 
 />
    <glyph glyph-name="nonmarkingreturn" horiz-adv-x="682" 
 />
    <glyph glyph-name="space" unicode=" " horiz-adv-x="40" 
 />
    <glyph glyph-name="exclam" unicode="!" horiz-adv-x="432" 
d="M350 1380h-125v-979h125v979zM391 86q0 43 -31 74q-30 30 -75 30t-72 -30q-31 -31 -31 -74q0 -45 29 -74q28 -28 74 -28q44 0 75 28t31 74z" />
    <glyph glyph-name="quotedbl" unicode="&#x22;" horiz-adv-x="544" 
d="M504 1395h-117v-471h117v471zM250 1395h-117v-471h117v471z" />
    <glyph glyph-name="numbersign" unicode="#" horiz-adv-x="1396" 
d="M1008 356h231v105h-209l96 459h230v104h-207l74 356h-117l-76 -356h-389l76 356h-121l-74 -356h-248v-104h226l-97 -459h-249v-105h227l-74 -356h117l76 356h389l-76 -356h121zM522 461l96 459h390l-97 -459h-389z" />
    <glyph glyph-name="dollar" unicode="$" horiz-adv-x="997" 
d="M563 -14q171 9 285 106q108 94 108 264q0 81 -26 140q-25 58 -80 106q-56 47 -100 72q-28 15 -125 59q-4 2 -9 4t-13 5.5t-13 5.5q-55 23 -113 53q-50 24 -94 57q-48 31 -68 76q-24 43 -24 98q0 108 82 172t219 64q69 0 156 -23q81 -21 129 -55v141q-81 43 -209 58v210
h-113v-206q-162 -9 -281 -107q-114 -94 -114 -262q0 -81 26 -137q27 -61 82 -107q44 -39 103 -71q35 -20 123 -60q1 -1 4.5 -2t5.5 -2t5.5 -2t4.5 -2t4.5 -2t5.5 -2q26 -10 67 -28.5t50 -22.5q36 -19 94 -56q48 -36 70 -75q22 -49 22 -101q0 -118 -79 -182q-81 -63 -228 -63
q-102 0 -196 30q-95 29 -160 78v-141q127 -74 287 -86v-209h112v205z" />
    <glyph glyph-name="percent" unicode="%" horiz-adv-x="1646" 
d="M1298 1339h-127l-720 -1341h124zM668 1262q-90 90 -217 90q-128 0 -218 -90t-90 -218q0 -127 90 -217t218 -90q127 0 217 90t90 217q0 128 -90 218zM315 1182q55 55 136 55q79 0 137 -55q55 -58 55 -138t-55 -135q-57 -57 -137 -57q-82 0 -136 57q-57 54 -57 135t57 138z
M1606 293q0 124 -90 217q-90 90 -218 90q-127 0 -217 -90t-90 -217t90 -217t217 -90q128 0 218 90t90 217zM1163 430q55 55 135 55t138 -55q55 -58 55 -137q0 -80 -55 -135q-58 -58 -138 -58t-135 58q-57 54 -57 135q0 80 57 137z" />
    <glyph glyph-name="ampersand" unicode="&#x26;" horiz-adv-x="1499" 
d="M449 1079q0 99 65 158q64 55 166 55q117 0 180 -63q62 -65 62 -158q0 -96 -70 -166q-66 -66 -225 -139q-112 118 -144 178q-34 64 -34 135zM1196 242q73 119 94 288h-125q-12 -119 -61 -204l-389 356q181 76 260 174q78 96 78 213q0 143 -103 246q-103 100 -266 100
q-168 0 -268 -92q-101 -94 -101 -242q0 -92 45 -172q42 -80 152 -196q-160 -66 -246 -152q-84 -84 -84 -205q0 -165 140 -268q137 -104 358 -104q279 0 440 161l158 -145h180zM674 106q-155 0 -258 68t-103 182q0 92 72 152q75 62 213 121l430 -400q-132 -123 -354 -123z
" />
    <glyph glyph-name="quotesingle" unicode="'" horiz-adv-x="290" 
d="M250 1395h-117v-471h117v471z" />
    <glyph glyph-name="parenleft" unicode="(" horiz-adv-x="716" 
d="M676 -401q-338 446 -338 927q0 474 324 922h-146q-145 -188 -227 -428q-84 -244 -84 -483q0 -521 327 -938h144z" />
    <glyph glyph-name="parenright" unicode=")" horiz-adv-x="538" 
d="M170 -401q328 418 328 938q0 239 -84 483q-82 237 -228 428h-145q324 -448 324 -922q0 -481 -338 -927h143z" />
    <glyph glyph-name="asterisk" unicode="*" horiz-adv-x="800" 
d="M551 975q-29 42 -64 57h17q34 0 67 10l189 64l-33 96l-188 -59q-46 -15 -74 -43q14 32 14 84v196h-102v-196q0 -48 18 -88q-26 26 -76 43l-188 61l-31 -98l187 -62q33 -10 63 -10q21 0 27 2q-36 -16 -66 -59l-116 -160l84 -59l116 157q32 47 35 82q6 -38 37 -80l117 -159
l82 61z" />
    <glyph glyph-name="plus" unicode="+" horiz-adv-x="1073" 
d="M1032 754h-385v393h-117v-393h-366v-115h366v-393h117v393h385v115z" />
    <glyph glyph-name="comma" unicode="," horiz-adv-x="436" 
d="M395 188h-184l-186 -438h110z" />
    <glyph glyph-name="hyphen" unicode="-" horiz-adv-x="665" 
d="M625 610h-461v-112h461v112z" />
    <glyph glyph-name="period" unicode="." horiz-adv-x="331" 
d="M262 164q-32 29 -76 29t-73 -29q-31 -31 -31 -76q0 -46 31 -74q27 -30 73 -30t76 30q29 29 29 74q0 44 -29 76z" />
    <glyph glyph-name="slash" unicode="/" horiz-adv-x="935" 
d="M895 1448h-127l-750 -1657h125z" />
    <glyph glyph-name="zero" unicode="0" horiz-adv-x="1101" 
d="M1061 674q0 314 -129 495q-133 183 -340 183q-200 0 -330 -183q-129 -185 -129 -495q0 -311 127 -500q126 -190 332 -190q223 0 346 190q123 188 123 500zM262 674q0 268 100 409q100 146 230 146q145 0 244 -144q96 -146 96 -411q0 -272 -92 -420q-95 -148 -248 -148
q-138 0 -234 152t-96 416z" />
    <glyph glyph-name="one" unicode="1" horiz-adv-x="548" 
d="M508 1339h-125l-301 -184v-141l301 188v-1202h125v1339z" />
    <glyph glyph-name="two" unicode="2" horiz-adv-x="997" 
d="M956 113h-655q608 485 608 841q0 190 -123 295q-124 103 -294 103q-182 0 -320 -111v-127q162 119 315 119q132 0 213 -72q78 -75 78 -213q0 -333 -655 -835v-113h833v113z" />
    <glyph glyph-name="three" unicode="3" horiz-adv-x="913" 
d="M872 369q0 121 -69 202q-70 82 -185 109q213 92 213 326q0 144 -104 245t-301 101q-154 0 -266 -74v-127q125 82 268 82q127 0 201 -59q71 -62 71 -181q0 -118 -82 -188q-84 -72 -196 -72h-90v-112h90q150 0 235 -64q86 -65 86 -184t-77 -193t-215 -74q-185 0 -328 76
v-127q140 -67 326 -67q202 0 313 108q110 107 110 273z" />
    <glyph glyph-name="four" unicode="4" horiz-adv-x="1124" 
d="M754 1268v-819h-492zM877 336h206v113h-206v890h-207l-537 -890v-113h621v-336h123v336z" />
    <glyph glyph-name="five" unicode="5" horiz-adv-x="1028" 
d="M987 410q0 177 -121 286q-119 107 -319 107q-66 0 -178 -23v447h524v112h-651v-727q167 72 311 72q132 0 217 -70q86 -71 86 -198q0 -314 -362 -314q-189 0 -320 76v-127q143 -67 340 -67q220 0 346 114q127 115 127 312z" />
    <glyph glyph-name="six" unicode="6" horiz-adv-x="1073" 
d="M1032 436q0 193 -104 309q-108 117 -293 117q-98 0 -189 -39q-96 -41 -159 -110q21 234 143 393q122 158 326 158q105 0 184 -39v127q-85 30 -182 30q-194 0 -332 -108t-203 -281q-65 -177 -65 -389q0 -276 123 -448q120 -172 344 -172q182 0 295 125q112 121 112 327z
M625 100q-149 0 -244 123q-94 122 -100 359q61 70 155 116q91 45 197 45q119 0 194 -81q74 -83 74 -222q0 -150 -74 -245q-77 -95 -202 -95z" />
    <glyph glyph-name="seven" unicode="7" horiz-adv-x="968" 
d="M928 1227v112h-867v-112h734l-566 -1227h136z" />
    <glyph glyph-name="eight" unicode="8" horiz-adv-x="1060" 
d="M1020 342q0 129 -72 213q-68 79 -198 115q110 34 174 116q61 82 61 191q0 178 -121 278q-123 97 -284 97t-281 -99q-123 -99 -123 -272q0 -115 64 -197q66 -85 176 -118q-120 -34 -191 -121q-71 -86 -71 -213q0 -158 125 -252q125 -96 301 -96q188 0 313 98
q127 100 127 260zM283 340q0 115 75 190q72 75 224 78q155 3 233 -69q76 -73 76 -179q0 -108 -80 -182q-79 -76 -229 -76q-146 0 -222 70q-77 68 -77 168zM305 981q0 107 76 180q75 72 199 72q131 0 204 -70q72 -72 72 -178q0 -122 -74 -190q-77 -68 -194 -68
q-127 0 -203 64q-80 65 -80 190z" />
    <glyph glyph-name="nine" unicode="9" horiz-adv-x="1007" 
d="M555 600q-138 0 -219 84q-82 82 -82 238q0 146 76 231q78 84 202 84q92 0 154 -39q60 -38 96 -111q31 -63 47 -145q15 -76 15 -164v-39q-112 -139 -289 -139zM967 778q0 247 -107 412q-108 166 -330 166q-189 0 -297 -123q-110 -125 -110 -311q0 -197 121 -318t280 -121
q203 0 312 127q-50 -508 -437 -508q-118 0 -229 48v-127q107 -39 229 -39q292 0 430 215q138 211 138 579z" />
    <glyph glyph-name="colon" unicode=":" horiz-adv-x="413" 
d="M373 756q0 42 -31 73t-76 31q-43 0 -71 -31q-31 -31 -31 -73q0 -45 29 -74t73 -29t76 29q31 28 31 74zM373 100q0 43 -31 74t-76 31q-43 0 -71 -31q-31 -31 -31 -74q0 -44 29 -73t73 -29t76 29q31 28 31 73z" />
    <glyph glyph-name="semicolon" unicode=";" horiz-adv-x="436" 
d="M395 188h-184l-186 -438h110zM391 754q0 42 -31 73t-75 31t-72 -31q-31 -31 -31 -73q0 -45 29 -74t74 -29q43 0 75 29q31 28 31 74z" />
    <glyph glyph-name="less" unicode="&#x3c;" horiz-adv-x="1024" 
d="M301 700l682 318v133l-819 -391v-123l819 -391v133z" />
    <glyph glyph-name="equal" unicode="=" horiz-adv-x="1073" 
d="M1032 952h-868v-112h868v112zM1032 555h-868v-115h868v115z" />
    <glyph glyph-name="greater" unicode="&#x3e;" horiz-adv-x="1003" 
d="M963 760l-820 391v-133l682 -318l-682 -321v-133l820 391v123z" />
    <glyph glyph-name="question" unicode="?" horiz-adv-x="921" 
d="M461 639q171 15 299 113q121 95 121 270q0 176 -115 276q-117 99 -313 99q-95 0 -183 -27q-95 -28 -147 -63v-133q162 104 332 104q148 0 221 -70q74 -71 74 -184q0 -138 -111 -205q-109 -69 -303 -69v-349h125v238zM502 86q0 43 -31 74q-30 30 -76 30q-44 0 -71 -30
q-31 -31 -31 -74q0 -45 29 -74q28 -28 73 -28t76 28t31 74z" />
    <glyph glyph-name="at" unicode="@" horiz-adv-x="1794" 
d="M1217 -119q-145 -86 -353 -86q-231 0 -397 158q-166 156 -166 448q0 308 219 512q219 201 508 201q264 0 436 -156t172 -432q0 -161 -63 -264q-64 -104 -160 -104q-145 0 -145 204q0 54 6 113l37 346h-109q-3 -67 -6 -114q-77 127 -242 127q-168 0 -278 -125
q-111 -126 -111 -301q0 -155 86 -258q83 -103 232 -103q185 0 299 170q47 -164 223 -164q134 0 242 123q106 121 106 356q0 313 -207 502q-210 189 -514 189q-359 0 -608 -234q-250 -235 -250 -590q0 -318 186 -516q185 -200 500 -200q224 0 348 65zM893 158q-93 0 -148 67
q-55 64 -55 174q0 131 72 228q70 94 186 94q111 0 162 -57q56 -62 70 -168q-9 -86 -9 -113q-37 -107 -114 -166t-164 -59z" />
    <glyph glyph-name="A" unicode="A" 
d="M459 582q236 684 239 692l234 -690l31 -88h-535zM389 383h610l131 -383h138l-477 1380h-185l-487 -1380h137z" />
    <glyph glyph-name="B" unicode="B" horiz-adv-x="1140" 
d="M684 0q203 0 309 100q107 101 107 267q0 148 -84 235q-85 85 -203 100q106 21 178 111q68 86 68 209q0 170 -129 264q-131 94 -340 94h-385v-1380h479zM604 1268q160 0 242 -70q80 -71 80 -172q0 -117 -84 -195q-83 -77 -262 -77h-248v514h272zM645 641q153 0 238 -70
q84 -72 84 -200q0 -126 -74 -191q-76 -67 -209 -67h-352v528h313z" />
    <glyph glyph-name="C" unicode="C" horiz-adv-x="1226" 
d="M1186 211q-134 -107 -338 -107q-261 0 -416 162q-158 166 -158 432q0 255 160 420q157 160 395 160q123 0 193 -18q71 -21 160 -68v133q-145 74 -348 74q-291 0 -492 -195q-199 -193 -199 -506q0 -334 193 -524t506 -190q219 0 344 88v139z" />
    <glyph glyph-name="D" unicode="D" horiz-adv-x="1331" 
d="M608 0q222 0 381 102q162 106 230 256q71 154 71 340q0 306 -194 494t-498 188h-393v-1380h403zM598 1264q247 0 403 -164q156 -167 156 -402q0 -110 -31 -215q-36 -108 -96 -184q-66 -84 -172 -133q-107 -49 -250 -49h-276v1147h266z" />
    <glyph glyph-name="E" unicode="E" horiz-adv-x="993" 
d="M952 117h-620v514h536v117h-536v516h608v116h-735v-1380h747v117z" />
    <glyph glyph-name="F" unicode="F" horiz-adv-x="980" 
d="M868 737h-536v527h608v116h-735v-1380h127v621h536v116z" />
    <glyph glyph-name="G" unicode="G" horiz-adv-x="1292" 
d="M1251 760h-452v-113h325v-473q-120 -63 -280 -63q-269 0 -418 155q-152 155 -152 426q0 261 154 426q151 160 393 160q229 0 385 -111v142q-158 96 -401 96q-284 0 -473 -201t-189 -512q0 -331 193 -518q190 -190 506 -190q248 0 409 118v658z" />
    <glyph glyph-name="H" unicode="H" horiz-adv-x="1212" 
d="M1171 1380h-127v-618h-712v618h-127v-1380h127v645h712v-645h127v1380z" />
    <glyph glyph-name="I" unicode="I" horiz-adv-x="382" 
d="M342 1380h-127v-1380h127v1380z" />
    <glyph glyph-name="J" unicode="J" horiz-adv-x="632" 
d="M592 1380h-127v-1063q0 -196 -186 -196q-95 0 -177 55v-129q77 -47 189 -47q301 0 301 338v1042z" />
    <glyph glyph-name="K" unicode="K" horiz-adv-x="1144" 
d="M530 680l545 700h-160l-546 -700l567 -680h168zM332 1380h-127v-1380h127v1380z" />
    <glyph glyph-name="L" unicode="L" horiz-adv-x="980" 
d="M940 117h-608v1263h-127v-1380h735v117z" />
    <glyph glyph-name="M" unicode="M" horiz-adv-x="1667" 
d="M360 547q30 432 43 653l230 -653l180 -512h150l190 512q152 411 244 667l55 -667l47 -547h127l-117 1380h-174l-188 -506q-134 -360 -258 -702l-244 702l-180 506h-174l-96 -1380h127z" />
    <glyph glyph-name="N" unicode="N" horiz-adv-x="1284" 
d="M332 584q0 353 -4 647l391 -651l350 -580h174v1380h-127v-585q0 -363 4 -645l-389 647l-352 583h-174v-1380h127v584z" />
    <glyph glyph-name="O" unicode="O" horiz-adv-x="1394" 
d="M1354 696q0 328 -160 523q-159 190 -446 190q-279 0 -441 -192q-164 -194 -164 -521q0 -326 168 -518q167 -194 441 -194q278 0 440 192t162 520zM274 696q0 277 127 434q126 156 347 156q226 0 352 -156q123 -156 123 -434q0 -276 -123 -432q-125 -158 -348 -158
q-216 0 -346 160q-132 156 -132 430z" />
    <glyph glyph-name="P" unicode="P" horiz-adv-x="1095" 
d="M559 524q227 0 363 121q133 121 133 293q0 200 -137 322q-138 120 -381 120h-332v-1380h127v524h227zM551 1268q178 0 276 -88q99 -88 99 -242q0 -129 -95 -215t-258 -86h-241v631h219z" />
    <glyph glyph-name="Q" unicode="Q" horiz-adv-x="1449" 
d="M1354 696q0 328 -160 523q-159 190 -446 190q-279 0 -441 -192q-164 -194 -164 -521q0 -326 168 -518q167 -194 441 -194q69 0 110 8l414 -277l133 58l-405 262q166 73 258 246t92 415zM274 696q0 277 127 434q126 156 347 156q226 0 352 -156q123 -156 123 -434
q0 -276 -123 -432q-125 -158 -348 -158q-216 0 -346 160q-132 156 -132 430z" />
    <glyph glyph-name="R" unicode="R" horiz-adv-x="1118" 
d="M530 1268q340 0 340 -301q0 -127 -82 -209q-84 -84 -233 -84h-223v594h198zM541 561q31 0 39 2l346 -563h151l-366 584q138 38 209 137q74 103 77 240q0 202 -118 311q-120 108 -363 108h-311v-1380h127v561h209z" />
    <glyph glyph-name="S" unicode="S" horiz-adv-x="1028" 
d="M987 356q0 64 -22 125q-18 43 -54 92q-31 35 -88 72q-61 39 -94 55q-12 5 -48 21.5t-60 26.5q-105 47 -115 53q-34 15 -90 55q-50 33 -72 78q-22 46 -22 98q0 109 81 172q82 64 220 64q68 0 155 -23q81 -21 129 -55v141q-115 62 -286 62q-177 0 -306 -97
q-125 -98 -125 -272q0 -44 13 -88q14 -49 26 -74q18 -36 47 -61q11 -9 30 -26t26 -23q25 -21 67 -43q57 -29 70 -35q69 -30 78 -33q57 -25 71 -33q122 -55 179 -106q61 -58 61 -148q0 -117 -80 -182q-81 -63 -227 -63q-103 0 -197 30q-93 28 -159 78v-141q153 -90 362 -90
q187 0 309 96q121 95 121 274z" />
    <glyph glyph-name="T" unicode="T" horiz-adv-x="1003" 
d="M963 1380h-891v-116h381v-1264h127v1264h383v116z" />
    <glyph glyph-name="U" unicode="U" horiz-adv-x="1226" 
d="M1186 1380h-127v-862q0 -412 -367 -412q-168 0 -262 99q-98 94 -98 303v872h-127v-874q0 -257 129 -389q127 -133 358 -133q237 0 365 137q129 135 129 401v858z" />
    <glyph glyph-name="V" unicode="V" horiz-adv-x="1292" 
d="M1251 1380h-137l-188 -546l-246 -721l-238 721l-182 546h-137l469 -1380h174z" />
    <glyph glyph-name="W" unicode="W" horiz-adv-x="1902" 
d="M784 436q169 569 220 758l233 -758l137 -436h174l314 1380h-127l-115 -516q-14 -63 -162 -743l-229 745l-154 494h-149l-144 -492q-56 -189 -211 -739l-186 739l-129 512h-133l358 -1380h174z" />
    <glyph glyph-name="X" unicode="X" horiz-adv-x="1224" 
d="M645 588l391 -588h148l-469 696l418 684h-148l-342 -569l-342 569h-147l419 -684l-446 -696h147z" />
    <glyph glyph-name="Y" unicode="Y" horiz-adv-x="1208" 
d="M1167 1380h-145l-109 -202q-270 -507 -280 -533l-277 533l-108 202h-146l467 -864v-516h127v516z" />
    <glyph glyph-name="Z" unicode="Z" horiz-adv-x="1116" 
d="M1075 113h-788l757 1155v112h-892v-112h749l-758 -1155v-113h932v113z" />
    <glyph glyph-name="bracketleft" unicode="[" horiz-adv-x="688" 
d="M647 -252h-315v1587h315v113h-442v-1815h442v115z" />
    <glyph glyph-name="backslash" unicode="\" horiz-adv-x="897" 
d="M106 1448h-126l749 -1659h127z" />
    <glyph glyph-name="bracketright" unicode="]" horiz-adv-x="524" 
d="M483 1448h-442v-113h315v-1587h-315v-115h442v1815z" />
    <glyph glyph-name="asciicircum" unicode="^" horiz-adv-x="911" 
d="M508 1143l231 -463h131l-276 537h-168l-287 -537h131z" />
    <glyph glyph-name="underscore" unicode="_" horiz-adv-x="1177" 
d="M1137 -55h-1035v-113h1035v113z" />
    <glyph glyph-name="grave" unicode="`" horiz-adv-x="681" 
d="M432 1634h-166l262 -307h113z" />
    <glyph glyph-name="a" unicode="a" horiz-adv-x="933" 
d="M498 104q-107 0 -164 54q-58 52 -58 139q0 81 72 141q71 56 217 56h203v-150q0 -104 -74 -172t-196 -68zM768 0h125v655q0 400 -381 400q-170 0 -293 -72v-135q128 88 291 88q141 0 199 -70q59 -71 59 -211v-47h-203q-192 0 -305 -82q-117 -82 -117 -233q0 -133 93 -217
q89 -86 233 -86q214 0 299 131v-121z" />
    <glyph glyph-name="b" unicode="b" horiz-adv-x="1134" 
d="M330 152q107 -168 321 -168q209 0 326 153q117 150 117 371q0 243 -125 395q-128 152 -322 152q-203 0 -317 -172v565h-125v-1448h125v152zM330 524q0 122 32 201q30 83 82 129q49 43 101 64q50 18 98 18q141 0 229 -111q91 -117 91 -319q0 -176 -86 -291
q-88 -113 -222 -113q-135 0 -229 99q-96 96 -96 323z" />
    <glyph glyph-name="c" unicode="c" horiz-adv-x="935" 
d="M895 162q-91 -66 -213 -66q-200 0 -309 121t-109 297q0 174 113 299q114 123 303 123q123 0 215 -62v127q-103 56 -227 56q-246 0 -389 -162q-146 -166 -146 -379q0 -225 141 -381q142 -160 394 -160q136 0 227 60v127z" />
    <glyph glyph-name="d" unicode="d" horiz-adv-x="1062" 
d="M264 506q0 203 90 319q88 111 230 111q48 0 100 -18q47 -20 100 -64q46 -43 82 -129q31 -88 31 -201q0 -227 -96 -323q-95 -99 -230 -99q-134 0 -219 113q-88 113 -88 291zM1022 1448h-125v-565q-114 172 -317 172q-194 0 -322 -152q-125 -152 -125 -395q0 -221 117 -371
q117 -153 325 -153q215 0 322 168v-152h125v1448z" />
    <glyph glyph-name="e" unicode="e" horiz-adv-x="1046" 
d="M940 178q-103 -69 -281 -69q-170 0 -276 92q-104 88 -119 262h733q9 41 9 110q0 228 -113 353t-303 125q-204 0 -330 -144q-127 -145 -127 -393q0 -233 146 -379q145 -145 374 -145q165 0 287 61v127zM586 934q132 0 213 -84q78 -84 78 -225v-47h-613q15 173 103 264
q89 92 219 92z" />
    <glyph glyph-name="f" unicode="f" horiz-adv-x="698" 
d="M655 1038h-237v109q0 97 45 145q44 47 104 47q44 0 90 -16v123q-47 12 -84 12q-131 0 -206 -84q-74 -83 -74 -225v-111h-191v-106h191v-932h125v932h237v106z" />
    <glyph glyph-name="g" unicode="g" horiz-adv-x="1042" 
d="M1001 1038h-124v-182q-102 199 -324 199q-187 0 -303 -152q-117 -150 -117 -385q0 -227 127 -360t305 -133q207 0 312 190v-135q0 -182 -93 -266q-92 -86 -247 -86q-170 0 -293 63v-123q127 -59 303 -59q202 0 327 119q127 118 127 352v958zM264 524q0 181 84 297
q83 115 230 115q114 0 206 -102q93 -107 93 -320q0 -187 -97 -278q-96 -93 -213 -93q-115 0 -209 99q-94 94 -94 282z" />
    <glyph glyph-name="h" unicode="h" horiz-adv-x="1021" 
d="M981 725q0 145 -90 238q-89 92 -240 92q-234 0 -329 -195v588h-125v-1448h125v573q0 165 92 265q93 96 219 96q101 0 162 -64t61 -184v-686h125v725z" />
    <glyph glyph-name="i" unicode="i" horiz-adv-x="395" 
d="M330 1038h-125v-1038h125v1038zM330 1434q-27 24 -64 24t-61 -24q-25 -28 -25 -64t25 -61t61 -25t64 25q24 24 24 61t-24 64z" />
    <glyph glyph-name="j" unicode="j" horiz-adv-x="393" 
d="M330 1038h-125v-1165q0 -152 -117 -152q-76 0 -143 33v-123q76 -28 141 -28q117 0 180 69q64 70 64 197v1169zM328 1434q-27 24 -64 24t-61 -24q-25 -28 -25 -64t25 -61t61 -25t64 25q24 24 24 61t-24 64z" />
    <glyph glyph-name="k" unicode="k" horiz-adv-x="983" 
d="M322 1448h-125v-1448h125v1448zM928 1038h-154l-422 -493l434 -545h156l-438 545z" />
    <glyph glyph-name="l" unicode="l" horiz-adv-x="370" 
d="M330 1448h-125v-1448h125v1448z" />
    <glyph glyph-name="m" unicode="m" horiz-adv-x="1591" 
d="M1550 725q0 148 -80 240q-81 90 -243 90q-213 0 -307 -205q-58 205 -308 205q-202 0 -290 -187v170h-125v-1038h125v573q0 162 84 263q82 98 188 98q217 0 217 -248v-686h125v573q0 162 84 263q82 98 188 98q217 0 217 -248v-686h125v725z" />
    <glyph glyph-name="n" unicode="n" horiz-adv-x="1021" 
d="M981 725q0 145 -90 238q-89 92 -240 92q-234 0 -329 -195v178h-125v-1038h125v573q0 165 92 265q93 96 219 96q101 0 162 -64t61 -184v-686h125v725z" />
    <glyph glyph-name="o" unicode="o" horiz-adv-x="1138" 
d="M1098 514q0 233 -127 387q-131 152 -361 152q-212 0 -344 -156q-133 -157 -133 -383q0 -231 129 -381q130 -151 348 -151q226 0 359 151q129 150 129 381zM264 514q0 173 92 297q92 123 254 123q181 0 269 -119t88 -301q0 -171 -93 -293q-95 -121 -264 -121
q-155 0 -250 123q-96 122 -96 291z" />
    <glyph glyph-name="p" unicode="p" horiz-adv-x="1126" 
d="M322 156q114 -172 317 -172q196 0 322 153q124 148 124 393q0 221 -116 373q-119 152 -326 152q-214 0 -321 -168v151h-125v-1448h125v566zM322 514q0 225 96 326q96 96 229 96t221 -113q86 -115 86 -291q0 -204 -90 -317q-88 -113 -229 -113q-49 0 -98 21
q-53 18 -101 63q-52 43 -82 129q-32 77 -32 199z" />
    <glyph glyph-name="q" unicode="q" horiz-adv-x="1062" 
d="M264 532q0 178 88 291q85 113 219 113t230 -96q96 -101 96 -326q0 -114 -31 -199q-36 -88 -82 -129q-51 -45 -100 -63q-52 -21 -100 -21q-142 0 -230 113q-90 113 -90 317zM1022 1038h-125v-151q-107 168 -322 168q-206 0 -325 -152q-117 -153 -117 -373q0 -244 125 -393
q126 -153 322 -153q203 0 317 172v-566h125v1448z" />
    <glyph glyph-name="r" unicode="r" horiz-adv-x="704" 
d="M322 580q0 134 75 243q74 109 185 109q42 0 82 -12v127q-50 4 -52 4q-204 0 -290 -189v176h-125v-1038h125v580z" />
    <glyph glyph-name="s" unicode="s" horiz-adv-x="841" 
d="M801 266q0 117 -76 187q-74 65 -221 125q-65 27 -86 36q-26 11 -64 39q-36 21 -53 56q-16 32 -16 71q0 67 53 111q53 41 141 41q166 0 260 -55v124q-91 48 -258 48q-139 0 -231 -74q-92 -77 -92 -201q0 -116 73 -180q76 -67 199 -115q134 -54 186 -96q56 -47 56 -127
q0 -68 -54 -113q-55 -43 -159 -43q-154 0 -295 78v-129q113 -61 303 -61q159 0 246 75q88 73 88 203z" />
    <glyph glyph-name="t" unicode="t" horiz-adv-x="735" 
d="M694 156q-59 -47 -139 -47q-166 0 -166 178v645h297v106h-297v260h-127v-260h-170v-106h170v-639q0 -303 295 -303q81 0 137 39v127z" />
    <glyph glyph-name="u" unicode="u" horiz-adv-x="1009" 
d="M969 1038h-125v-577q0 -155 -84 -256q-86 -99 -223 -99q-103 0 -164 64q-64 64 -64 182v686h-125v-721q0 -149 90 -239q89 -92 240 -92q247 0 330 200v-186h125v1038z" />
    <glyph glyph-name="v" unicode="v" horiz-adv-x="1038" 
d="M997 1038h-131l-151 -436q-148 -422 -170 -502l-166 502l-146 436h-131l359 -1038h168z" />
    <glyph glyph-name="w" unicode="w" horiz-adv-x="1634" 
d="M684 340q113 400 154 553l159 -553l101 -340h168l327 1038h-131l-106 -342q-119 -382 -174 -575l-168 575l-103 342h-147l-98 -342q-35 -121 -72 -250.5l-59 -206.5t-33 -114l-10 47q-10 38 -52 188q-57 197 -98 334l-102 344h-138l318 -1038h168z" />
    <glyph glyph-name="x" unicode="x" horiz-adv-x="978" 
d="M516 436l272 -436h150l-348 532l325 508h-145l-252 -409l-254 409h-147l321 -505l-342 -535h142z" />
    <glyph glyph-name="y" unicode="y" horiz-adv-x="1030" 
d="M989 1038h-139l-127 -348q-153 -423 -178 -500l-201 500l-141 348h-144l424 -1009q-86 -250 -305 -250q-27 0 -69 10v-123q42 -10 77 -10q133 0 242 80q107 79 184 291z" />
    <glyph glyph-name="z" unicode="z" horiz-adv-x="903" 
d="M862 123h-581l553 821v94h-680v-120h524l-545 -814v-104h729v123z" />
    <glyph glyph-name="braceleft" unicode="{" horiz-adv-x="720" 
d="M680 -238q-34 -18 -70 -18q-65 0 -100 47t-35 115q0 56 25 172q22 116 22 174q0 111 -61 190q-66 78 -191 99q126 21 191 98q61 76 61 188q0 58 -22 174q-25 116 -25 173q0 69 35 116q33 45 100 45q36 0 70 -18v127q-38 14 -86 14q-104 0 -176 -78q-74 -77 -74 -211
q0 -51 25 -157q22 -107 22 -152q0 -101 -45 -166q-47 -71 -137 -86q-28 -4 -66 -4v-125q46 0 66 -4q182 -47 182 -256q0 -42 -22 -149q-25 -106 -25 -160q0 -134 74 -211q72 -78 176 -78q48 0 86 14v127z" />
    <glyph glyph-name="bar" unicode="|" horiz-adv-x="356" 
d="M315 1423h-110v-1820h110v1820z" />
    <glyph glyph-name="braceright" unicode="}" horiz-adv-x="638" 
d="M397 -90q0 53 -22 160q-25 106 -25 149q0 209 182 256q20 4 66 4v125q-38 0 -66 4q-88 15 -135 86q-47 68 -47 166q0 46 25 152q22 107 22 157q0 134 -71 211q-75 78 -179 78q-48 0 -86 -14v-127q35 18 70 18q69 0 102 -45q33 -44 33 -116q0 -57 -22 -173
q-25 -116 -25 -174q0 -112 64 -188q62 -77 188 -98q-125 -21 -188 -99q-64 -79 -64 -190q0 -58 25 -174q22 -116 22 -172q0 -71 -33 -115q-35 -47 -102 -47q-35 0 -70 18v-127q38 -14 86 -14q104 0 179 78q71 77 71 211z" />
    <glyph glyph-name="asciitilde" unicode="~" horiz-adv-x="1200" 
d="M444 565q55 0 201 -82q147 -84 238 -84q169 0 276 174l-96 66q-65 -123 -180 -123q-72 0 -209 82q-140 82 -244 82q-180 0 -311 -186l82 -76q102 147 243 147z" />
    <glyph glyph-name="exclamdown" unicode="&#xa1;" horiz-adv-x="432" 
d="M350 641h-125v-979h125v979zM391 956q0 46 -31 74q-32 29 -75 29q-45 0 -74 -29t-29 -74q0 -42 31 -73q28 -31 72 -31t75 31t31 73z" />
    <glyph glyph-name="cent" unicode="&#xa2;" horiz-adv-x="911" 
d="M870 150q-79 -46 -178 -46q-202 0 -309 119q-109 118 -109 291q0 174 113 293q115 121 303 121q91 0 180 -47v127q-86 36 -159 39v210h-113v-213q-211 -27 -332 -178q-123 -153 -123 -350q0 -201 121 -352q119 -149 334 -176v-215h113v213q78 3 159 37v127z" />
    <glyph glyph-name="sterling" unicode="&#xa3;" horiz-adv-x="1058" 
d="M1018 113h-676q81 50 127 135q45 83 45 264q0 6 -4 100h364v105h-376q-19 192 -19 231q0 281 281 281q104 0 205 -55v126q-100 50 -207 50q-188 0 -295 -107t-107 -307q0 -34 19 -219h-187v-105h197q6 -56 6 -102q0 -177 -45 -260q-47 -86 -172 -144v-106h844v113z" />
    <glyph glyph-name="currency" unicode="&#xa4;" horiz-adv-x="1105" 
d="M319 285q109 -80 263 -80q155 0 270 86l129 -127l84 84l-129 127q92 121 92 272t-82 264l119 119l-84 84l-119 -119q-113 82 -264 82q-152 0 -274 -90l-125 127l-84 -84l125 -127q-88 -116 -88 -270q0 -157 81 -266l-118 -119l84 -84zM354 879q92 92 236 92t235 -94
q93 -96 93 -238q0 -143 -93 -236q-92 -92 -235 -92q-144 0 -236 95q-92 92 -92 235t92 238z" />
    <glyph glyph-name="yen" unicode="&#xa5;" horiz-adv-x="1163" 
d="M1051 444h-367v72l66 123h301v102h-246l317 598h-139l-362 -702l-359 702h-139l315 -598h-248v-102h302l65 -123v-72h-367v-102h367v-342h127v342h367v102z" />
    <glyph glyph-name="brokenbar" unicode="&#xa6;" horiz-adv-x="356" 
d="M315 1423h-110v-673h110v673zM315 276h-110v-673h110v673z" />
    <glyph glyph-name="section" unicode="&#xa7;" horiz-adv-x="980" 
d="M573 334q-67 28 -94 43q-15 7 -78 41q-47 26 -71 53q-26 29 -41 64q-19 43 -19 83q0 96 60 156q12 -6 129 -53q106 -44 112 -47q120 -54 181 -109q63 -57 63 -147q0 -106 -61 -170q-54 32 -181 86zM940 418q0 64 -22 125q-18 43 -54 92q-31 35 -88 72q-61 39 -94 55
q-14 5 -51.5 21.5t-57.5 25.5q-34 15 -75 31q-12 5 -37.5 15t-34.5 13q-18 6 -59 31q-34 18 -50 37q-17 17 -30 49q-13 33 -13 68q0 103 80 159t221 56q69 0 156 -23q81 -21 129 -55v141q-115 62 -287 62q-185 0 -307 -88q-123 -89 -123 -261q0 -122 82 -198
q-82 -94 -82 -232q0 -44 13 -88q13 -47 26 -73q19 -37 47 -62q11 -9 30 -26t26 -23q25 -21 67 -43q57 -29 70 -35q69 -30 78 -33q63 -27 71 -32q120 -54 179 -107q61 -58 61 -147q0 -118 -80 -183q-81 -63 -227 -63q-99 0 -197 31q-97 29 -160 77v-141q153 -90 363 -90
q187 0 309 96q121 95 121 275q0 136 -88 227q88 94 88 244z" />
    <glyph glyph-name="dieresis" unicode="&#xa8;" horiz-adv-x="768" 
d="M727 1487q0 38 -25 63t-63 25q-36 0 -61 -25q-27 -24 -27 -63q0 -38 27 -62q23 -26 61 -26q40 0 63 26q25 25 25 62zM350 1487q0 39 -24 63q-28 25 -64 25q-38 0 -63 -25t-25 -63q0 -37 25 -62q23 -26 63 -26q38 0 64 26q24 24 24 62z" />
    <glyph glyph-name="copyright" unicode="&#xa9;" horiz-adv-x="1587" 
d="M1059 449q-58 -52 -158 -52q-129 0 -205 82q-78 84 -78 203q0 125 78 209q76 82 205 82q87 0 158 -47v116q-71 41 -166 41q-184 0 -287 -118q-106 -118 -106 -281q0 -165 104 -281t289 -116q106 0 166 45v117zM1337 1188q-209 209 -497 209q-289 0 -498 -209
q-209 -212 -209 -500q0 -289 209 -498q208 -208 498 -208q289 0 497 208q209 209 209 498q0 288 -209 500zM428 1104q171 174 414 174q241 0 415 -174q173 -176 173 -416q0 -241 -173 -414q-174 -174 -415 -174q-243 0 -414 174q-174 171 -174 414q0 242 174 416z" />
    <glyph glyph-name="ordfeminine" unicode="&#xaa;" horiz-adv-x="710" 
d="M338 895q-90 0 -139 43t-49 113q0 163 274 163h141v-135q0 -73 -65 -129q-64 -55 -162 -55zM565 803h105v551q0 336 -320 336q-145 0 -246 -64v-108q107 73 244 73q118 0 168 -59q49 -61 49 -178v-37h-166q-166 0 -260 -70q-98 -70 -98 -198q0 -118 76 -185
q75 -69 198 -69q153 0 250 118v-110z" />
    <glyph glyph-name="guillemotleft" unicode="&#xab;" horiz-adv-x="950" 
d="M909 850h-143l-307 -332l307 -332h143l-301 332zM246 518l301 332h-144l-307 -332l307 -332h144z" />
    <glyph glyph-name="logicalnot" unicode="&#xac;" horiz-adv-x="1105" 
d="M1065 844h-983v-121h858v-383h125v504z" />
    <glyph glyph-name="uni00AD" unicode="&#xad;" horiz-adv-x="665" 
d="M625 610h-461v-112h461v112z" />
    <glyph glyph-name="registered" unicode="&#xae;" horiz-adv-x="958" 
d="M442 1143h43l93 -156h98l-107 172q72 31 72 119q0 135 -162 135h-121v-426h84v156zM489 1343q68 0 68 -65q0 -68 -61 -68h-54v133h47zM797 1493q-121 121 -308 121q-186 0 -307 -121t-121 -307q0 -184 121 -305t307 -121q187 0 308 121t121 305q0 186 -121 307zM246 1432
q91 94 246 94q151 0 245 -94q92 -95 92 -246q0 -152 -92 -244q-94 -94 -245 -94q-155 0 -246 94q-92 92 -92 244q0 151 92 246z" />
    <glyph glyph-name="macron" unicode="&#xaf;" horiz-adv-x="759" 
d="M719 1534h-539v-92h539v92z" />
    <glyph glyph-name="degree" unicode="&#xb0;" horiz-adv-x="700" 
d="M584 1307q-76 73 -199 73t-203 -77t-80 -199t76 -195t199 -73t203 77q79 76 79 199t-75 195zM211 1108q0 74 47 127q46 49 119 49q74 0 125 -51q49 -52 49 -125q0 -77 -45 -125q-45 -51 -121 -51q-75 0 -123 51q-51 51 -51 125z" />
    <glyph glyph-name="plusminus" unicode="&#xb1;" horiz-adv-x="1073" 
d="M1032 795h-385v362h-117v-362h-366v-115h366v-363h117v363h385v115zM1032 178h-868v-115h868v115z" />
    <glyph glyph-name="uni00B2" unicode="&#xb2;" horiz-adv-x="747" 
d="M707 897h-404q163 126 270 270q103 139 103 258q0 125 -84 197q-83 68 -199 68q-107 0 -219 -68v-121q116 90 223 90q74 0 121 -41q45 -42 45 -129q0 -216 -420 -534v-84h564v94z" />
    <glyph glyph-name="uni00B3" unicode="&#xb3;" horiz-adv-x="661" 
d="M621 1038q0 86 -56 148q-59 59 -133 65q160 41 160 205q0 101 -70 168q-72 66 -203 66q-99 0 -184 -54v-108q97 63 187 63q159 0 159 -141q0 -74 -51 -113q-52 -43 -127 -43h-55v-94h55q96 0 152 -41q55 -43 55 -119q0 -69 -45 -108t-127 -39q-124 0 -225 55v-104
q101 -49 225 -49q136 0 209 67q74 68 74 176z" />
    <glyph glyph-name="acute" unicode="&#xb4;" horiz-adv-x="681" 
d="M641 1634h-166l-209 -307h113z" />
    <glyph glyph-name="mu" unicode="&#xb5;" horiz-adv-x="1021" 
d="M322 84q88 -98 245 -98q216 0 289 180v-166h125v1038h-125v-577q0 -155 -72 -256q-74 -99 -194 -99q-108 0 -189 66q-79 64 -79 180v686h-125v-1405h125v451z" />
    <glyph glyph-name="paragraph" unicode="&#xb6;" horiz-adv-x="1017" 
d="M606 1380h-125q-174 0 -276 -102q-103 -103 -103 -240q0 -142 101 -233q101 -94 280 -94v-1014h123v1683zM977 1380h-123v-1683h123v1683z" />
    <glyph glyph-name="periodcentered" unicode="&#xb7;" horiz-adv-x="413" 
d="M344 766q-32 29 -76 29t-73 -29q-31 -31 -31 -76q0 -46 31 -74q27 -30 73 -30t76 30q29 29 29 74q0 44 -29 76z" />
    <glyph glyph-name="cedilla" unicode="&#xb8;" horiz-adv-x="636" 
d="M596 -248q0 92 -37 144h-125q47 -77 47 -154q0 -132 -178 -150v-100q140 6 217 80q76 73 76 180z" />
    <glyph glyph-name="uni00B9" unicode="&#xb9;" horiz-adv-x="421" 
d="M381 1681h-88l-232 -131v-116l213 118v-749h107v878z" />
    <glyph glyph-name="ordmasculine" unicode="&#xba;" horiz-adv-x="835" 
d="M694 1567q-103 127 -291 127q-172 0 -276 -131q-107 -131 -107 -322q0 -194 103 -321q102 -129 280 -129q183 0 289 127q103 127 103 323q0 198 -101 326zM129 1241q0 144 74 250q70 104 200 104q147 0 213 -100q68 -103 68 -254q0 -148 -72 -252q-72 -100 -209 -100
q-121 0 -198 102q-76 101 -76 250z" />
    <glyph glyph-name="guillemotright" unicode="&#xbb;" horiz-adv-x="948" 
d="M600 850h-143l301 -332l-301 -332h143l307 332zM545 518l-307 332h-144l301 -332l-301 -332h144z" />
    <glyph glyph-name="onequarter" unicode="&#xbc;" horiz-adv-x="1675" 
d="M1409 1458h-127l-934 -1458h125zM524 1456h-88l-231 -131v-117l213 119v-749h106v878zM1399 791v-496h-297zM1501 209h133v86h-133v584h-153l-355 -584v-86h406v-209h102v209z" />
    <glyph glyph-name="onehalf" unicode="&#xbd;" horiz-adv-x="1693" 
d="M1409 1458h-127l-934 -1458h125zM524 1456h-88l-231 -131v-117l213 119v-749h106v878zM1653 94h-404q164 127 271 271q102 138 102 258q0 124 -84 196q-83 68 -199 68q-107 0 -219 -68v-121q116 90 223 90q75 0 121 -40q45 -42 45 -130q0 -216 -419 -534v-84h563v94z" />
    <glyph glyph-name="threequarters" unicode="&#xbe;" horiz-adv-x="1792" 
d="M1526 1458h-127l-934 -1458h125zM723 813q0 87 -55 148q-59 59 -133 65q159 40 159 205q0 102 -69 168q-71 65 -203 65q-101 0 -184 -53v-108q97 63 186 63q160 0 160 -141q0 -73 -52 -113q-52 -43 -126 -43h-56v-94h56q95 0 151 -41q55 -43 55 -119q0 -69 -45 -108
t-127 -39q-124 0 -225 55v-105q101 -49 225 -49q135 0 209 68t74 176zM1516 791v-496h-297zM1618 209h133v86h-133v584h-154l-354 -584v-86h406v-209h102v209z" />
    <glyph glyph-name="questiondown" unicode="&#xbf;" horiz-adv-x="921" 
d="M881 -131q-163 -105 -332 -105q-146 0 -221 72q-74 71 -74 182q0 136 111 207q112 68 303 68v348h-125v-238q-174 -15 -297 -112q-123 -95 -123 -271q0 -177 117 -276q113 -98 311 -98q96 0 184 26q93 29 146 64v133zM711 956q0 45 -29 74t-74 29q-44 0 -76 -29
q-30 -27 -30 -74q0 -43 30 -73q31 -31 76 -31q43 0 74 31q29 32 29 73z" />
    <glyph glyph-name="Agrave" unicode="&#xc0;" 
d="M459 582q236 684 239 692l234 -690l31 -88h-535zM389 383h610l131 -383h138l-477 1380h-185l-487 -1380h137zM530 1800h-165l262 -307h112z" />
    <glyph glyph-name="Aacute" unicode="&#xc1;" 
d="M459 582q236 684 239 692l234 -690l31 -88h-535zM389 383h610l131 -383h138l-477 1380h-185l-487 -1380h137zM1030 1800h-166l-209 -307h113z" />
    <glyph glyph-name="Acircumflex" unicode="&#xc2;" 
d="M459 582q236 684 239 692l234 -690l31 -88h-535zM389 383h610l131 -383h138l-477 1380h-185l-487 -1380h137zM698 1712l179 -219h131l-244 307h-129l-244 -307h131z" />
    <glyph glyph-name="Atilde" unicode="&#xc3;" 
d="M459 582q236 684 239 692l234 -690l31 -88h-535zM389 383h610l131 -383h138l-477 1380h-185l-487 -1380h137zM580 1655q33 0 125 -47q89 -47 141 -47q121 0 182 131l-86 57q-40 -88 -102 -88q-36 0 -125 47t-148 47q-65 0 -116 -39q-54 -39 -82 -100l73 -62
q52 101 138 101z" />
    <glyph glyph-name="Adieresis" unicode="&#xc4;" 
d="M459 582q236 684 239 692l234 -690l31 -88h-535zM389 383h610l131 -383h138l-477 1380h-185l-487 -1380h137zM975 1649q0 38 -25 63t-63 25q-37 0 -62 -25q-26 -23 -26 -63q0 -39 26 -62q23 -26 62 -26q40 0 63 26q25 25 25 62zM598 1649q0 38 -25 63q-28 25 -63 25
q-39 0 -64 -25q-24 -24 -24 -63q0 -38 24 -62q23 -26 64 -26q37 0 63 26q25 25 25 62z" />
    <glyph glyph-name="Aring" unicode="&#xc5;" 
d="M459 582q236 684 239 692l234 -690l31 -88h-535zM389 383h610l131 -383h138l-477 1380h-185l-487 -1380h137zM842 1817q-59 59 -144 59q-82 0 -141 -59t-59 -144q0 -82 59 -141t141 -59q85 0 144 59t59 141q0 85 -59 144zM623 1751q29 33 75 33q44 0 80 -31
q31 -36 31 -80q0 -47 -33 -76q-32 -32 -78 -32q-47 0 -75 32q-33 29 -33 76q0 45 33 78z" />
    <glyph glyph-name="AE" unicode="&#xc6;" horiz-adv-x="1757" 
d="M461 383h508v-383h747v117h-620v514h536v117h-536v516h608v116h-793l-815 -1380h137zM580 582q238 400 389 671v-757h-441z" />
    <glyph glyph-name="Ccedilla" unicode="&#xc7;" horiz-adv-x="1226" 
d="M1186 211q-134 -107 -338 -107q-261 0 -416 162q-158 166 -158 432q0 255 160 420q157 160 395 160q123 0 193 -18q71 -21 160 -68v133q-145 74 -348 74q-291 0 -492 -195q-199 -193 -199 -506q0 -334 193 -524t506 -190q219 0 344 88v139zM891 -248q0 92 -37 144h-125
q47 -77 47 -154q0 -132 -178 -150v-100q140 6 217 80q76 73 76 180z" />
    <glyph glyph-name="Egrave" unicode="&#xc8;" horiz-adv-x="993" 
d="M952 117h-620v514h536v117h-536v516h608v116h-735v-1380h747v117zM473 1798h-166l262 -307h113z" />
    <glyph glyph-name="Eacute" unicode="&#xc9;" horiz-adv-x="993" 
d="M952 117h-620v514h536v117h-536v516h608v116h-735v-1380h747v117zM928 1800h-166l-209 -307h113z" />
    <glyph glyph-name="Ecircumflex" unicode="&#xca;" horiz-adv-x="993" 
d="M952 117h-620v514h536v117h-536v516h608v116h-735v-1380h747v117zM600 1712l178 -219h131l-243 307h-129l-244 -307h131z" />
    <glyph glyph-name="Edieresis" unicode="&#xcb;" horiz-adv-x="993" 
d="M952 117h-620v514h536v117h-536v516h608v116h-735v-1380h747v117zM864 1645q0 39 -24 63q-25 25 -64 25q-36 0 -61 -25q-27 -24 -27 -63q0 -38 27 -62q24 -27 61 -27q40 0 64 27q24 24 24 62zM487 1645q0 39 -24 63q-28 25 -64 25q-38 0 -63 -25t-25 -63q0 -37 25 -62
q24 -27 63 -27q37 0 64 27q24 24 24 62z" />
    <glyph glyph-name="Igrave" unicode="&#xcc;" horiz-adv-x="382" 
d="M342 1380h-127v-1380h127v1380zM117 1800h-166l262 -307h113z" />
    <glyph glyph-name="Iacute" unicode="&#xcd;" horiz-adv-x="647" 
d="M342 1380h-127v-1380h127v1380zM606 1800h-166l-209 -307h113z" />
    <glyph glyph-name="Icircumflex" unicode="&#xce;" horiz-adv-x="628" 
d="M342 1380h-127v-1380h127v1380zM279 1712l178 -219h131l-244 307h-129l-244 -307h131z" />
    <glyph glyph-name="Idieresis" unicode="&#xcf;" horiz-adv-x="598" 
d="M342 1380h-127v-1380h127v1380zM557 1647q0 38 -25 63t-63 25q-36 0 -61 -25q-27 -24 -27 -63q0 -38 27 -62q23 -26 61 -26q40 0 63 26q25 25 25 62zM180 1647q0 39 -24 63q-28 25 -64 25q-38 0 -63 -25t-25 -63q0 -37 25 -62q23 -26 63 -26q38 0 64 26q24 24 24 62z" />
    <glyph glyph-name="Eth" unicode="&#xd0;" horiz-adv-x="1474" 
d="M752 0q222 0 381 102q161 105 229 256q72 156 72 340q0 305 -195 494q-194 188 -498 188h-393v-630h-184v-109h184v-641h404zM852 750h-377v514h266q248 0 404 -164q155 -165 155 -402q0 -113 -30 -215q-36 -108 -96 -184q-65 -84 -173 -133q-107 -49 -249 -49h-277v524
h377v109z" />
    <glyph glyph-name="Ntilde" unicode="&#xd1;" horiz-adv-x="1284" 
d="M332 584q0 353 -4 647l391 -651l350 -580h174v1380h-127v-585q0 -363 4 -645l-389 647l-352 583h-174v-1380h127v584zM625 1653q33 0 125 -47q89 -47 141 -47q121 0 182 131l-86 57q-40 -88 -102 -88q-36 0 -125 47t-148 47q-65 0 -116 -39q-54 -39 -82 -100l73 -62
q52 101 138 101z" />
    <glyph glyph-name="Ograve" unicode="&#xd2;" horiz-adv-x="1394" 
d="M1354 696q0 328 -160 523q-159 190 -446 190q-279 0 -441 -192q-164 -194 -164 -521q0 -326 168 -518q167 -194 441 -194q278 0 440 192t162 520zM274 696q0 277 127 434q126 156 347 156q226 0 352 -156q123 -156 123 -434q0 -276 -123 -432q-125 -158 -348 -158
q-216 0 -346 160q-132 156 -132 430zM614 1800h-165l262 -307h112z" />
    <glyph glyph-name="Oacute" unicode="&#xd3;" horiz-adv-x="1394" 
d="M1354 696q0 328 -160 523q-159 190 -446 190q-279 0 -441 -192q-164 -194 -164 -521q0 -326 168 -518q167 -194 441 -194q278 0 440 192t162 520zM274 696q0 277 127 434q126 156 347 156q226 0 352 -156q123 -156 123 -434q0 -276 -123 -432q-125 -158 -348 -158
q-216 0 -346 160q-132 156 -132 430zM1085 1800h-165l-209 -307h112z" />
    <glyph glyph-name="Ocircumflex" unicode="&#xd4;" horiz-adv-x="1394" 
d="M1354 696q0 328 -160 523q-159 190 -446 190q-279 0 -441 -192q-164 -194 -164 -521q0 -326 168 -518q167 -194 441 -194q278 0 440 192t162 520zM274 696q0 277 127 434q126 156 347 156q226 0 352 -156q123 -156 123 -434q0 -276 -123 -432q-125 -158 -348 -158
q-216 0 -346 160q-132 156 -132 430zM764 1712l178 -219h131l-244 307h-129l-243 -307h131z" />
    <glyph glyph-name="Otilde" unicode="&#xd5;" horiz-adv-x="1394" 
d="M1354 696q0 328 -160 523q-159 190 -446 190q-279 0 -441 -192q-164 -194 -164 -521q0 -326 168 -518q167 -194 441 -194q278 0 440 192t162 520zM274 696q0 277 127 434q126 156 347 156q226 0 352 -156q123 -156 123 -434q0 -276 -123 -432q-125 -158 -348 -158
q-216 0 -346 160q-132 156 -132 430zM635 1657q33 0 125 -47q89 -47 141 -47q121 0 182 131l-86 57q-40 -88 -102 -88q-36 0 -125 47t-147 47q-66 0 -117 -39q-54 -39 -82 -100l74 -62q52 101 137 101z" />
    <glyph glyph-name="Odieresis" unicode="&#xd6;" horiz-adv-x="1394" 
d="M1354 696q0 328 -160 523q-159 190 -446 190q-279 0 -441 -192q-164 -194 -164 -521q0 -326 168 -518q167 -194 441 -194q278 0 440 192t162 520zM274 696q0 277 127 434q126 156 347 156q226 0 352 -156q123 -156 123 -434q0 -276 -123 -432q-125 -158 -348 -158
q-216 0 -346 160q-132 156 -132 430zM1030 1649q0 39 -24 63q-25 25 -64 25q-36 0 -61 -25q-27 -24 -27 -63q0 -38 27 -62q23 -26 61 -26q41 0 64 26q24 24 24 62zM653 1649q0 39 -24 63q-28 25 -64 25q-38 0 -63 -25t-25 -63q0 -37 25 -62q23 -26 63 -26q38 0 64 26
q24 24 24 62z" />
    <glyph glyph-name="multiply" unicode="&#xd7;" horiz-adv-x="935" 
d="M614 698l281 279l-82 82l-281 -279l-280 277l-82 -82l281 -277l-271 -268l82 -82l270 268l271 -268l82 82z" />
    <glyph glyph-name="Oslash" unicode="&#xd8;" horiz-adv-x="1380" 
d="M1337 696q0 318 -149 510l151 203h-147l-90 -119q-149 119 -371 119q-278 0 -440 -192q-164 -194 -164 -521q0 -312 156 -503l-158 -211h145l95 127q155 -125 370 -125q279 0 441 192q161 191 161 520zM258 696q0 277 127 434q126 156 346 156q179 0 295 -98l-664 -889
q-104 155 -104 397zM735 106q-173 0 -293 105l664 887q100 -150 100 -402q0 -276 -123 -432q-125 -158 -348 -158z" />
    <glyph glyph-name="Ugrave" unicode="&#xd9;" horiz-adv-x="1226" 
d="M1186 1380h-127v-862q0 -412 -367 -412q-168 0 -262 99q-98 94 -98 303v872h-127v-874q0 -257 129 -389q127 -133 358 -133q237 0 365 137q129 135 129 401v858zM547 1800h-166l262 -307h113z" />
    <glyph glyph-name="Uacute" unicode="&#xda;" horiz-adv-x="1226" 
d="M1186 1380h-127v-862q0 -412 -367 -412q-168 0 -262 99q-98 94 -98 303v872h-127v-874q0 -257 129 -389q127 -133 358 -133q237 0 365 137q129 135 129 401v858zM1038 1800h-166l-208 -307h112z" />
    <glyph glyph-name="Ucircumflex" unicode="&#xdb;" horiz-adv-x="1226" 
d="M1186 1380h-127v-862q0 -412 -367 -412q-168 0 -262 99q-98 94 -98 303v872h-127v-874q0 -257 129 -389q127 -133 358 -133q237 0 365 137q129 135 129 401v858zM700 1712l179 -219h131l-244 307h-129l-244 -307h131z" />
    <glyph glyph-name="Udieresis" unicode="&#xdc;" horiz-adv-x="1226" 
d="M1186 1380h-127v-862q0 -412 -367 -412q-168 0 -262 99q-98 94 -98 303v872h-127v-874q0 -257 129 -389q127 -133 358 -133q237 0 365 137q129 135 129 401v858zM973 1649q0 38 -25 63t-63 25q-37 0 -62 -25q-26 -23 -26 -63q0 -39 26 -62q23 -26 62 -26q40 0 63 26
q25 25 25 62zM596 1649q0 38 -25 63q-28 25 -63 25q-39 0 -64 -25q-24 -24 -24 -63q0 -38 24 -62q23 -26 64 -26q37 0 63 26q25 25 25 62z" />
    <glyph glyph-name="Yacute" unicode="&#xdd;" horiz-adv-x="1208" 
d="M1167 1380h-145l-109 -202q-270 -507 -280 -533l-277 533l-108 202h-146l467 -864v-516h127v516zM989 1798h-166l-209 -307h113z" />
    <glyph glyph-name="Thorn" unicode="&#xde;" horiz-adv-x="1075" 
d="M539 262q240 0 368 119q127 121 127 295q0 202 -131 321q-133 121 -387 121h-184v262h-127v-1380h127v262h207zM530 1006q188 0 283 -86q92 -89 92 -244q0 -135 -88 -217q-90 -84 -264 -84h-221v631h198z" />
    <glyph glyph-name="germandbls" unicode="&#xdf;" horiz-adv-x="1093" 
d="M1053 268q0 89 -47 160q-46 69 -103 111q-63 43 -104 90q-47 53 -47 100q0 42 43 94q38 46 84 121q43 70 43 164q0 127 -93 217q-94 88 -245 88q-174 0 -275 -94q-104 -94 -104 -285v-1034h127v1034q0 258 241 258q99 0 160 -49q62 -53 62 -135q0 -56 -27 -109
q-24 -47 -61 -84q-39 -39 -62 -84q-29 -56 -29 -110q0 -63 33 -113q27 -47 78 -88q53 -46 90 -76q39 -31 78 -84q31 -48 31 -102q0 -69 -56 -113q-55 -43 -147 -43q-88 0 -166 35v-131q61 -20 160 -20q159 0 248 80q88 79 88 202z" />
    <glyph glyph-name="agrave" unicode="&#xe0;" horiz-adv-x="933" 
d="M498 104q-107 0 -164 54q-58 52 -58 139q0 81 72 141q71 56 217 56h203v-150q0 -104 -74 -172t-196 -68zM768 0h125v655q0 400 -381 400q-170 0 -293 -72v-135q128 88 291 88q141 0 199 -70q59 -71 59 -211v-47h-203q-192 0 -305 -82q-117 -82 -117 -233q0 -133 93 -217
q89 -86 233 -86q214 0 299 131v-121zM410 1458h-166l262 -307h112z" />
    <glyph glyph-name="aacute" unicode="&#xe1;" horiz-adv-x="933" 
d="M498 104q-107 0 -164 54q-58 52 -58 139q0 81 72 141q71 56 217 56h203v-150q0 -104 -74 -172t-196 -68zM768 0h125v655q0 400 -381 400q-170 0 -293 -72v-135q128 88 291 88q141 0 199 -70q59 -71 59 -211v-47h-203q-192 0 -305 -82q-117 -82 -117 -233q0 -133 93 -217
q89 -86 233 -86q214 0 299 131v-121zM889 1458h-166l-209 -307h113z" />
    <glyph glyph-name="acircumflex" unicode="&#xe2;" horiz-adv-x="933" 
d="M498 104q-107 0 -164 54q-58 52 -58 139q0 81 72 141q71 56 217 56h203v-150q0 -104 -74 -172t-196 -68zM768 0h125v655q0 400 -381 400q-170 0 -293 -72v-135q128 88 291 88q141 0 199 -70q59 -71 59 -211v-47h-203q-192 0 -305 -82q-117 -82 -117 -233q0 -133 93 -217
q89 -86 233 -86q214 0 299 131v-121zM559 1368l178 -219h131l-243 307h-129l-244 -307h131z" />
    <glyph glyph-name="atilde" unicode="&#xe3;" horiz-adv-x="933" 
d="M498 104q-107 0 -164 54q-58 52 -58 139q0 81 72 141q71 56 217 56h203v-150q0 -104 -74 -172t-196 -68zM768 0h125v655q0 400 -381 400q-170 0 -293 -72v-135q128 88 291 88q141 0 199 -70q59 -71 59 -211v-47h-203q-192 0 -305 -82q-117 -82 -117 -233q0 -133 93 -217
q89 -86 233 -86q214 0 299 131v-121zM432 1313q33 0 125 -47q89 -47 141 -47q122 0 183 131l-86 57q-40 -88 -103 -88q-36 0 -125 47t-147 47q-66 0 -117 -39q-54 -39 -82 -100l74 -62q52 101 137 101z" />
    <glyph glyph-name="adieresis" unicode="&#xe4;" horiz-adv-x="933" 
d="M498 104q-107 0 -164 54q-58 52 -58 139q0 81 72 141q71 56 217 56h203v-150q0 -104 -74 -172t-196 -68zM768 0h125v655q0 400 -381 400q-170 0 -293 -72v-135q128 88 291 88q141 0 199 -70q59 -71 59 -211v-47h-203q-192 0 -305 -82q-117 -82 -117 -233q0 -133 93 -217
q89 -86 233 -86q214 0 299 131v-121zM827 1298q0 40 -24 64t-64 24q-37 0 -61 -24q-27 -24 -27 -64q0 -37 27 -61q24 -27 61 -27q40 0 64 27q24 24 24 61zM451 1298q0 39 -25 64q-27 24 -64 24q-39 0 -63 -24q-25 -25 -25 -64q0 -36 25 -61q24 -27 63 -27q37 0 64 27
q25 25 25 61z" />
    <glyph glyph-name="aring" unicode="&#xe5;" horiz-adv-x="933" 
d="M498 104q-107 0 -164 54q-58 52 -58 139q0 81 72 141q71 56 217 56h203v-150q0 -104 -74 -172t-196 -68zM768 0h125v655q0 400 -381 400q-170 0 -293 -72v-135q128 88 291 88q141 0 199 -70q59 -71 59 -211v-47h-203q-192 0 -305 -82q-117 -82 -117 -233q0 -133 93 -217
q89 -86 233 -86q214 0 299 131v-121zM702 1475q-59 59 -143 59q-82 0 -141 -59q-60 -60 -60 -144q0 -81 60 -141t141 -60q83 0 143 60t60 141q0 84 -60 144zM483 1409q29 33 76 33t80 -33q31 -36 31 -78q0 -47 -33 -76q-32 -32 -78 -32q-48 0 -76 32q-32 28 -32 76
q0 46 32 78z" />
    <glyph glyph-name="ae" unicode="&#xe6;" horiz-adv-x="1683" 
d="M854 209q65 -100 178 -158q113 -61 254 -61q159 0 281 61v127q-103 -69 -275 -69q-157 0 -266 92q-106 87 -121 262h729q8 36 8 100q0 236 -104 361q-106 127 -303 127q-241 0 -367 -191q-77 195 -346 195q-174 0 -293 -76v-129q127 86 291 86q141 0 199 -70
q59 -71 59 -211v-45h-196q-193 0 -312 -84q-116 -82 -116 -235q0 -139 92 -219q88 -82 233 -82q136 0 236 59q99 58 139 160zM285 295q0 194 325 194h168v-124q0 -113 -78 -185q-78 -69 -192 -69q-109 0 -166 51q-57 48 -57 133zM1231 934q125 0 205 -80q77 -80 77 -229v-47
h-608q15 174 107 266q90 90 219 90z" />
    <glyph glyph-name="ccedilla" unicode="&#xe7;" horiz-adv-x="935" 
d="M895 162q-91 -66 -213 -66q-200 0 -309 121t-109 297q0 174 113 299q114 123 303 123q123 0 215 -62v127q-103 56 -227 56q-246 0 -389 -162q-146 -166 -146 -379q0 -225 141 -381q142 -160 394 -160q136 0 227 60v127zM719 -248q0 92 -37 144h-125q47 -77 47 -154
q0 -132 -178 -150v-100q140 6 217 80q76 73 76 180z" />
    <glyph glyph-name="egrave" unicode="&#xe8;" horiz-adv-x="1046" 
d="M940 178q-103 -69 -281 -69q-170 0 -276 92q-104 88 -119 262h733q9 41 9 110q0 228 -113 353t-303 125q-204 0 -330 -144q-127 -145 -127 -393q0 -233 146 -379q145 -145 374 -145q165 0 287 61v127zM586 934q132 0 213 -84q78 -84 78 -225v-47h-613q15 173 103 264
q89 92 219 92zM475 1458h-166l262 -307h113z" />
    <glyph glyph-name="eacute" unicode="&#xe9;" horiz-adv-x="1046" 
d="M940 178q-103 -69 -281 -69q-170 0 -276 92q-104 88 -119 262h733q9 41 9 110q0 228 -113 353t-303 125q-204 0 -330 -144q-127 -145 -127 -393q0 -233 146 -379q145 -145 374 -145q165 0 287 61v127zM586 934q132 0 213 -84q78 -84 78 -225v-47h-613q15 173 103 264
q89 92 219 92zM944 1458h-166l-209 -307h113z" />
    <glyph glyph-name="ecircumflex" unicode="&#xea;" horiz-adv-x="1046" 
d="M940 178q-103 -69 -281 -69q-170 0 -276 92q-104 88 -119 262h733q9 41 9 110q0 228 -113 353t-303 125q-204 0 -330 -144q-127 -145 -127 -393q0 -233 146 -379q145 -145 374 -145q165 0 287 61v127zM586 934q132 0 213 -84q78 -84 78 -225v-47h-613q15 173 103 264
q89 92 219 92zM623 1370l178 -219h131l-244 307h-129l-244 -307h131z" />
    <glyph glyph-name="edieresis" unicode="&#xeb;" horiz-adv-x="1046" 
d="M940 178q-103 -69 -281 -69q-170 0 -276 92q-104 88 -119 262h733q9 41 9 110q0 228 -113 353t-303 125q-204 0 -330 -144q-127 -145 -127 -393q0 -233 146 -379q145 -145 374 -145q165 0 287 61v127zM586 934q132 0 213 -84q78 -84 78 -225v-47h-613q15 173 103 264
q89 92 219 92zM893 1305q0 38 -25 63t-63 25q-37 0 -62 -25q-26 -23 -26 -63q0 -39 26 -62q23 -26 62 -26q40 0 63 26q25 25 25 62zM516 1305q0 39 -24 63q-28 25 -64 25q-38 0 -63 -25t-25 -63q0 -37 25 -62q23 -26 63 -26q38 0 64 26q24 24 24 62z" />
    <glyph glyph-name="igrave" unicode="&#xec;" horiz-adv-x="370" 
d="M330 1038h-125v-1038h125v1038zM106 1456h-165l262 -307h112z" />
    <glyph glyph-name="iacute" unicode="&#xed;" horiz-adv-x="638" 
d="M330 1038h-125v-1038h125v1038zM598 1458h-166l-209 -307h113z" />
    <glyph glyph-name="icircumflex" unicode="&#xee;" horiz-adv-x="618" 
d="M330 1038h-125v-1038h125v1038zM268 1370l178 -219h132l-244 307h-129l-244 -307h131z" />
    <glyph glyph-name="idieresis" unicode="&#xef;" horiz-adv-x="585" 
d="M330 1038h-125v-1038h125v1038zM545 1309q0 38 -25 63t-63 25q-37 0 -62 -25q-26 -23 -26 -63q0 -39 26 -62q23 -26 62 -26q40 0 63 26q25 25 25 62zM168 1309q0 38 -25 63q-28 25 -63 25q-39 0 -64 -25q-24 -24 -24 -63q0 -38 24 -62q23 -26 64 -26q37 0 63 26
q25 25 25 62z" />
    <glyph glyph-name="eth" unicode="&#xf0;" horiz-adv-x="1026" 
d="M985 541q0 345 -219 626l184 95v114l-254 -131q-71 77 -164 135h-221q142 -65 275 -192l-213 -111v-114l284 147q159 -193 199 -420q-120 150 -317 150q-171 0 -293 -113q-125 -113 -125 -313q0 -180 119 -305q121 -127 307 -127q199 0 319 141q119 137 119 418zM547 100
q-127 0 -211 84t-84 230q0 144 82 223q80 80 198 80q211 0 336 -180q0 -217 -92 -326q-92 -111 -229 -111z" />
    <glyph glyph-name="ntilde" unicode="&#xf1;" horiz-adv-x="1021" 
d="M981 725q0 145 -90 238q-89 92 -240 92q-234 0 -329 -195v178h-125v-1038h125v573q0 165 92 265q93 96 219 96q101 0 162 -64t61 -184v-686h125v725zM489 1311q33 0 125 -47q89 -47 142 -47q121 0 182 131l-86 57q-40 -88 -102 -88q-36 0 -125 47t-148 47q-66 0 -117 -39
q-53 -38 -81 -100l73 -62q52 101 137 101z" />
    <glyph glyph-name="ograve" unicode="&#xf2;" horiz-adv-x="1138" 
d="M1098 514q0 233 -127 387q-131 152 -361 152q-212 0 -344 -156q-133 -157 -133 -383q0 -231 129 -381q130 -151 348 -151q226 0 359 151q129 150 129 381zM264 514q0 173 92 297q92 123 254 123q181 0 269 -119t88 -301q0 -171 -93 -293q-95 -121 -264 -121
q-155 0 -250 123q-96 122 -96 291zM465 1458h-166l262 -307h113z" />
    <glyph glyph-name="oacute" unicode="&#xf3;" horiz-adv-x="1138" 
d="M1098 514q0 233 -127 387q-131 152 -361 152q-212 0 -344 -156q-133 -157 -133 -383q0 -231 129 -381q130 -151 348 -151q226 0 359 151q129 150 129 381zM264 514q0 173 92 297q92 123 254 123q181 0 269 -119t88 -301q0 -171 -93 -293q-95 -121 -264 -121
q-155 0 -250 123q-96 122 -96 291zM956 1458h-165l-209 -307h112z" />
    <glyph glyph-name="ocircumflex" unicode="&#xf4;" horiz-adv-x="1138" 
d="M1098 514q0 233 -127 387q-131 152 -361 152q-212 0 -344 -156q-133 -157 -133 -383q0 -231 129 -381q130 -151 348 -151q226 0 359 151q129 150 129 381zM264 514q0 173 92 297q92 123 254 123q181 0 269 -119t88 -301q0 -171 -93 -293q-95 -121 -264 -121
q-155 0 -250 123q-96 122 -96 291zM621 1368l178 -219h131l-244 307h-129l-244 -307h131z" />
    <glyph glyph-name="otilde" unicode="&#xf5;" horiz-adv-x="1138" 
d="M1098 514q0 233 -127 387q-131 152 -361 152q-212 0 -344 -156q-133 -157 -133 -383q0 -231 129 -381q130 -151 348 -151q226 0 359 151q129 150 129 381zM264 514q0 173 92 297q92 123 254 123q181 0 269 -119t88 -301q0 -171 -93 -293q-95 -121 -264 -121
q-155 0 -250 123q-96 122 -96 291zM502 1311q33 0 125 -47q89 -47 141 -47q121 0 182 131l-86 57q-40 -88 -102 -88q-36 0 -125 47t-148 47q-65 0 -116 -39q-54 -39 -82 -100l74 -62q52 101 137 101z" />
    <glyph glyph-name="odieresis" unicode="&#xf6;" horiz-adv-x="1138" 
d="M1098 514q0 233 -127 387q-131 152 -361 152q-212 0 -344 -156q-133 -157 -133 -383q0 -231 129 -381q130 -151 348 -151q226 0 359 151q129 150 129 381zM264 514q0 173 92 297q92 123 254 123q181 0 269 -119t88 -301q0 -171 -93 -293q-95 -121 -264 -121
q-155 0 -250 123q-96 122 -96 291zM907 1300q0 40 -24 64q-25 25 -64 25q-36 0 -61 -25q-27 -24 -27 -64q0 -37 27 -61q24 -27 61 -27q40 0 64 27q24 24 24 61zM530 1300q0 40 -24 64q-28 25 -64 25q-38 0 -63 -25t-25 -64q0 -36 25 -61q24 -27 63 -27q37 0 64 27
q24 24 24 61z" />
    <glyph glyph-name="divide" unicode="&#xf7;" horiz-adv-x="1073" 
d="M1032 754h-868v-115h868v115zM666 397q-27 27 -68 27q-39 0 -66 -27q-28 -28 -28 -67q0 -38 28 -66t66 -28q40 0 68 28q26 26 26 66q0 41 -26 67zM666 1130q-27 27 -68 27q-39 0 -66 -27q-28 -28 -28 -67q0 -38 28 -66t66 -28q40 0 68 28q26 26 26 66q0 41 -26 67z" />
    <glyph glyph-name="oslash" unicode="&#xf8;" horiz-adv-x="1173" 
d="M1133 514q0 235 -123 379l123 160h-148l-61 -80q-115 80 -279 80q-212 0 -344 -156q-133 -157 -133 -383t123 -373l-123 -159h145l62 81q112 -81 270 -81q226 0 359 151q129 150 129 381zM293 514q0 178 94 303q95 123 258 123q123 0 209 -59l-485 -635q-76 113 -76 268z
M645 94q-105 0 -196 66l487 635q72 -113 72 -281q0 -178 -95 -299t-268 -121z" />
    <glyph glyph-name="ugrave" unicode="&#xf9;" horiz-adv-x="1009" 
d="M969 1038h-125v-577q0 -155 -84 -256q-86 -99 -223 -99q-103 0 -164 64q-64 64 -64 182v686h-125v-721q0 -149 90 -239q89 -92 240 -92q247 0 330 200v-186h125v1038zM430 1456h-166l262 -307h113z" />
    <glyph glyph-name="uacute" unicode="&#xfa;" horiz-adv-x="1009" 
d="M969 1038h-125v-577q0 -155 -84 -256q-86 -99 -223 -99q-103 0 -164 64q-64 64 -64 182v686h-125v-721q0 -149 90 -239q89 -92 240 -92q247 0 330 200v-186h125v1038zM909 1458h-166l-208 -307h112z" />
    <glyph glyph-name="ucircumflex" unicode="&#xfb;" horiz-adv-x="1009" 
d="M969 1038h-125v-577q0 -155 -84 -256q-86 -99 -223 -99q-103 0 -164 64q-64 64 -64 182v686h-125v-721q0 -149 90 -239q89 -92 240 -92q247 0 330 200v-186h125v1038zM580 1370l178 -219h131l-244 307h-129l-244 -307h131z" />
    <glyph glyph-name="udieresis" unicode="&#xfc;" horiz-adv-x="1009" 
d="M969 1038h-125v-577q0 -155 -84 -256q-86 -99 -223 -99q-103 0 -164 64q-64 64 -64 182v686h-125v-721q0 -149 90 -239q89 -92 240 -92q247 0 330 200v-186h125v1038zM862 1300q0 40 -24 64q-25 25 -64 25q-36 0 -61 -25q-27 -24 -27 -64q0 -37 27 -61q24 -27 61 -27
q40 0 64 27q24 24 24 61zM485 1300q0 40 -24 64q-28 25 -64 25q-38 0 -63 -25t-25 -64q0 -36 25 -61q24 -27 63 -27q37 0 64 27q24 24 24 61z" />
    <glyph glyph-name="yacute" unicode="&#xfd;" horiz-adv-x="1030" 
d="M989 1038h-139l-127 -348q-153 -423 -178 -500l-201 500l-141 348h-144l424 -1009q-86 -250 -305 -250q-27 0 -69 10v-123q42 -10 77 -10q133 0 242 80q107 79 184 291zM870 1458h-165l-209 -307h112z" />
    <glyph glyph-name="thorn" unicode="&#xfe;" horiz-adv-x="1126" 
d="M322 156q114 -172 317 -172q196 0 322 153q124 148 124 393q0 221 -116 373q-119 152 -326 152q-214 0 -321 -168v561h-125v-1858h125v566zM322 514q0 225 96 326q96 96 229 96t221 -113q86 -115 86 -291q0 -204 -90 -317q-88 -113 -229 -113q-49 0 -98 21
q-53 18 -101 63q-52 43 -82 129q-32 77 -32 199z" />
    <glyph glyph-name="ydieresis" unicode="&#xff;" horiz-adv-x="1030" 
d="M989 1038h-139l-127 -348q-153 -423 -178 -500l-201 500l-141 348h-144l424 -1009q-86 -250 -305 -250q-27 0 -69 10v-123q42 -10 77 -10q133 0 242 80q107 79 184 291zM829 1300q0 40 -24 64q-25 25 -64 25q-36 0 -61 -25q-27 -24 -27 -64q0 -37 27 -61q24 -27 61 -27
q40 0 64 27q24 24 24 61zM453 1300q0 39 -25 64q-28 25 -63 25q-39 0 -64 -25t-25 -64q0 -36 25 -61q24 -27 64 -27q36 0 63 27q25 25 25 61z" />
    <glyph glyph-name="dotlessi" unicode="&#x131;" horiz-adv-x="370" 
d="M330 1038h-125v-1038h125v1038z" />
    <glyph glyph-name="OE" unicode="&#x152;" horiz-adv-x="1994" 
d="M274 696q0 277 121 434q120 156 342 156q228 0 348 -156q121 -157 121 -434q0 -279 -119 -434q-120 -156 -346 -156q-212 0 -340 158q-127 157 -127 432zM1954 117h-621v514h537v117h-537v516h609v116h-736v-200q-155 229 -469 229q-279 0 -434 -192q-160 -195 -160 -521
q0 -324 164 -518t434 -194q310 0 465 233v-217h748v117z" />
    <glyph glyph-name="oe" unicode="&#x153;" horiz-adv-x="1826" 
d="M264 514q0 177 84 299q83 121 242 121q325 0 325 -420q0 -179 -77 -297q-80 -117 -248 -117q-154 0 -240 121t-86 293zM1374 934q125 0 205 -80q78 -81 78 -229v-47h-608q15 175 106 266q90 90 219 90zM1710 178q-103 -69 -274 -69q-158 0 -267 92q-105 86 -120 262h729
q8 36 8 100q0 235 -105 361q-106 127 -303 127q-271 0 -395 -232q-114 234 -393 234q-208 0 -332 -154q-125 -155 -125 -385t121 -381t336 -151q283 0 397 243q66 -112 184 -174q113 -61 259 -61q158 0 280 61v127z" />
    <glyph glyph-name="circumflex" unicode="&#x2c6;" horiz-adv-x="798" 
d="M449 1546l178 -219h131l-244 307h-129l-244 -307h131z" />
    <glyph glyph-name="ring" unicode="&#x2da;" horiz-adv-x="692" 
d="M592 1624q-59 59 -143 59q-83 0 -142 -59t-59 -143q0 -83 59 -142t142 -59q84 0 143 59t59 142q0 84 -59 143zM373 1559q28 32 76 32q45 0 79 -30q31 -36 31 -80q0 -47 -33 -76q-33 -33 -77 -33q-47 0 -76 33q-33 29 -33 76q0 45 33 78z" />
    <glyph glyph-name="tilde" unicode="&#x2dc;" horiz-adv-x="843" 
d="M354 1462q33 0 125 -47q89 -47 142 -47q121 0 182 131l-86 57q-40 -88 -103 -88q-34 0 -125 48q-89 47 -147 47q-66 0 -117 -39q-53 -39 -82 -101l74 -61q51 100 137 100z" />
    <glyph glyph-name="uni0964" unicode="&#x964;" horiz-adv-x="514" 
d="M473 1298h-125v-1298h125v1298z" />
    <glyph glyph-name="uni0965" unicode="&#x965;" horiz-adv-x="1005" 
d="M965 1298h-125v-1298h125v1298zM473 1298h-125v-1298h125v1298z" />
    <glyph glyph-name="uni0980" unicode="&#x980;" horiz-adv-x="40" 
 />
    <glyph glyph-name="uni0981" unicode="&#x981;" horiz-adv-x="139" 
d="M-20 1626q0 -51 -41 -92q-39 -39 -123 -39q-76 0 -121 39t-45 92h-119q0 -90 84 -162q83 -71 201 -71q119 0 200 69q82 70 82 164h-118zM-129 1688q-20 20 -55 20q-34 0 -54 -20t-20 -56q0 -33 20 -53t54 -20q37 0 57 20q21 21 21 53q0 33 -23 56z" />
    <glyph glyph-name="uni0982" unicode="&#x982;" horiz-adv-x="860" 
d="M152 1012q0 -127 86 -213t221 -86q133 0 219 86t86 213q0 124 -86 213q-86 86 -219 86q-135 0 -221 -86q-86 -89 -86 -213zM639 1012q0 -83 -49 -135q-51 -54 -131 -54q-82 0 -133 54q-50 53 -50 135t50 135q48 51 133 51q83 0 131 -51q49 -52 49 -135zM819 -4v141
l-676 506v-143z" />
    <glyph glyph-name="uni0983" unicode="&#x983;" horiz-adv-x="804" 
d="M152 1012q0 -127 86 -213t221 -86q133 0 219 86t86 213q0 124 -86 213q-86 86 -219 86q-135 0 -221 -86q-86 -89 -86 -213zM639 1012q0 -83 -49 -135q-51 -54 -131 -54q-82 0 -133 54q-50 53 -50 135t50 135q48 51 133 51q83 0 131 -51q49 -52 49 -135zM152 279
q0 -127 86 -213t221 -86q133 0 219 86t86 213q0 124 -86 213q-86 86 -219 86q-135 0 -221 -86q-86 -89 -86 -213zM639 279q0 -84 -49 -136q-50 -53 -131 -53q-83 0 -133 53t-50 136q0 82 50 135q48 51 133 51q83 0 131 -51q49 -52 49 -135z" />
    <glyph glyph-name="uni0985" unicode="&#x985;" horiz-adv-x="1927" 
d="M1640 1186h246v112h-1886v-112h1516v-828q-69 97 -220 97h-67q41 106 41 229q0 155 -82 262t-230 107q-138 0 -215 -92t-77 -222q0 -90 26 -164h117q-18 83 -18 158q0 93 45 150q42 57 122 57q95 0 142 -72q45 -68 45 -184q0 -188 -103 -303q-101 -113 -284 -113
q-197 0 -305 129q-111 126 -111 348q0 118 14 230h-123q-16 -109 -16 -230q0 -250 139 -421q137 -168 402 -168q273 0 407 186h133q124 0 170 -82q48 -85 48 -219v-41h124v1186z" />
    <glyph glyph-name="uni0986" unicode="&#x986;" horiz-adv-x="2461" 
d="M1270 684q0 155 -82 262t-230 107q-138 0 -215 -92t-77 -222q0 -90 26 -164h117q-18 83 -18 158q0 93 45 150q42 57 122 57q95 0 142 -72q45 -68 45 -184q0 -188 -103 -303q-101 -113 -284 -113q-197 0 -305 129q-111 126 -111 348q0 118 14 230h-123q-16 -109 -16 -230
q0 -250 139 -421q137 -168 402 -168q273 0 407 186h133q124 0 170 -82q48 -85 48 -219v-41h124v1186h273q137 0 137 -176v-1010h125v1186h246v112h-246v175h-125v-68q0 -93 14 -197q-47 90 -151 90h-1913v-112h1516v-828q-69 97 -220 97h-67q41 106 41 229z" />
    <glyph glyph-name="uni0987" unicode="&#x987;" horiz-adv-x="1048" 
d="M821 -8l-424 305q200 0 310 113t110 284q0 146 -90 242q-93 96 -240 96t-229 -88q-86 -89 -86 -223q0 -77 27 -150h120q-22 90 -22 150q0 91 51 145q54 54 139 54q95 0 150 -58t55 -168q0 -282 -307 -291h-170v-114l426 -309h180v12zM1008 1298h-183q15 58 15 125
q0 105 -62 176q-61 70 -194 70q-63 0 -162 -24q-102 -27 -143 -27q-62 0 -160 31v-103q77 -41 166 -41q50 0 149 27q99 24 152 24q135 0 135 -143q0 -65 -12 -115h-709v-112h1008v112z" />
    <glyph glyph-name="uni0988" unicode="&#x988;" horiz-adv-x="1490" 
d="M195 727q0 -85 22 -156h121q-19 74 -19 156q0 87 48 141q46 52 131 52q102 0 149 -72q45 -68 45 -184q0 -167 -76 -265t-231 -98q-65 0 -170 10v-112q116 -11 170 -11q166 0 270 88q104 85 142 230q105 105 288 274q-32 -168 -32 -362q0 -204 47 -418h125
q-49 244 -49 446q0 220 51 504h-127q-135 -121 -283 -260q-9 143 -88 244q-82 98 -231 98q-139 0 -222 -86q-81 -87 -81 -219zM0 1186h1450v112h-231q14 55 14 125q0 112 -70 179t-207 67q-66 0 -229 -24q-163 -27 -240 -27q-117 0 -225 31v-103q96 -41 232 -41
q104 0 260 27q156 24 204 24q156 0 156 -143q0 -65 -12 -115h-1102v-112z" />
    <glyph glyph-name="uni0989" unicode="&#x989;" horiz-adv-x="1443" 
d="M1239 578q0 170 -45 286q-113 -72 -121 -76q-43 -26 -106 -49q-65 -24 -125 -24q-127 0 -127 143v328h688v112h-215q14 55 14 125q0 113 -69 179q-70 67 -207 67q-66 0 -230 -24q-163 -27 -239 -27q-117 0 -226 31v-103q96 -41 232 -41q104 0 260 27q156 24 205 24
q155 0 155 -143q0 -65 -12 -115h-1071v-112h590v-328q0 -117 69 -186q70 -70 179 -70q135 0 272 88q6 -41 6 -100q0 -199 -98 -318q-100 -118 -287 -118q-208 0 -317 151q-107 149 -107 391q0 105 8 170h-122q-13 -96 -13 -170q0 -289 146 -473q144 -182 405 -182
q238 0 375 152q133 151 133 385z" />
    <glyph glyph-name="uni098A" unicode="&#x98a;" horiz-adv-x="1605" 
d="M0 1186h752v-328q0 -117 69 -186q70 -70 178 -70q136 0 273 88q6 -41 6 -100q0 -198 -100 -316q-102 -120 -269 -120q-368 0 -368 542q0 105 8 170h-121q-12 -89 -12 -170q0 -176 55 -319q56 -145 156 -211q-158 35 -252 178q-96 143 -96 352q0 105 8 170h-121
q-12 -88 -12 -170q0 -173 57 -299q55 -127 154 -204q98 -75 221 -113q116 -39 266 -39q273 0 410 149q139 148 139 388q0 170 -45 286q-113 -72 -121 -76q-42 -25 -107 -49q-64 -24 -124 -24q-127 0 -127 143v328h688v112h-215q14 55 14 125q0 112 -70 179t-207 67
q-75 0 -270 -29q-188 -28 -280 -28q-184 0 -308 37v-103q109 -47 314 -47q109 0 301 29q182 28 246 28q155 0 155 -143q0 -65 -12 -115h-1233v-112z" />
    <glyph glyph-name="uni098B" unicode="&#x98b;" horiz-adv-x="1742" 
d="M944 485h170q124 0 170 -82q47 -83 47 -219v-41h125v1043h246v112h-246v175h-125v-971q-69 96 -219 96h-168v700h-125v-356l-8 -4l-172 360h-117q8 -49 8 -124q0 -100 -47 -162t-133 -62q-88 0 -135 56q-45 54 -45 143q0 55 23 149h-121q-27 -74 -27 -149q0 -138 82 -223
q82 -88 215 -88q110 0 182 63q77 67 97 174l102 -192l-590 -367v-151l686 -365h125v485zM260 444l559 357v-664z" />
    <glyph glyph-name="uni098C" unicode="&#x98c;" horiz-adv-x="1198" 
d="M1157 522q0 136 -39 234q-41 103 -100 159q-69 62 -139 105q-64 39 -152 82q-78 35 -137 74q-64 40 -103 102q-38 58 -38 145q0 14 4 50h-121q-8 -21 -8 -66q0 -106 38 -178q40 -76 103 -121q56 -42 137 -82q26 -14 76.5 -39t75.5 -39q78 -42 139 -88q58 -50 100 -135
q39 -79 39 -199q0 -161 -94 -274q-92 -111 -256 -139q119 137 119 338q0 147 -94 245q-97 97 -242 97q-147 0 -238 -91q-92 -89 -92 -231q0 -101 37 -219h125q-37 112 -37 217q0 97 53 156q52 55 152 55q102 0 158 -62q55 -64 55 -167q0 -102 -43 -195q-45 -98 -111 -152
v-108q44 -6 82 -6q238 0 393 155q158 155 158 377z" />
    <glyph glyph-name="uni098F" unicode="&#x98f;" horiz-adv-x="1132" 
d="M348 844q0 -152 88 -228q87 -75 244 -75q58 0 115 8v108q-62 -4 -103 -4q-108 0 -164 41q-55 40 -55 150q0 148 102 256q100 106 228 106q86 0 125 -51t39 -164v-798q-32 38 -93 38q-65 0 -192 -38q-137 -41 -205 -41q-96 0 -147 63q-54 63 -54 172q0 12 1 26.5t2 35
t2 34.5h-121q-6 -41 -6 -96q0 -164 86 -256t237 -92q95 0 238 41q140 41 170 41q82 0 82 -98v-23h125v991q0 328 -289 328q-190 0 -322 -141q-133 -145 -133 -334z" />
    <glyph glyph-name="uni0990" unicode="&#x990;" horiz-adv-x="1560" 
d="M346 1585q142 -55 299 -67l201 -17q549 -46 549 -444q0 -181 -76 -279q-75 -100 -229 -100q-3 0 -39 4v309q0 328 -289 328q-190 0 -322 -141q-133 -145 -133 -334q0 -152 88 -228q87 -75 244 -75q58 0 115 8v108q-62 -4 -103 -4q-108 0 -164 41q-55 40 -55 150
q0 147 103 256q100 106 227 106q86 0 125 -51t39 -164v-798q-32 38 -92 38q-66 0 -193 -38q-137 -41 -205 -41q-96 0 -147 63q-53 62 -53 172q0 18 4 96h-121q-6 -41 -6 -96q0 -164 86 -256t237 -92q95 0 238 41q140 41 170 41q82 0 82 -98v-23h125v569q20 -4 61 -4
q181 0 295 135q113 131 113 357q0 496 -658 555l-209 18q-154 14 -307 70v-115z" />
    <glyph glyph-name="uni0993" unicode="&#x993;" horiz-adv-x="1198" 
d="M1157 399q0 134 -76 207q-77 71 -174 80q86 26 144 115q53 86 53 198q0 133 -86 228q-86 92 -240 92q-153 0 -237 -90t-84 -223q0 -61 16 -127h121q-12 71 -12 125q0 93 51 147q52 55 145 55q98 0 150 -55q51 -57 51 -152q0 -108 -59 -182q-61 -76 -193 -76h-61v-112h55
q142 0 227 -54t82 -169q-3 -117 -80 -185q-79 -67 -213 -67q-194 0 -311 141q-117 138 -117 405q0 60 6 125h-120q-11 -86 -11 -127q0 -290 148 -473q147 -182 405 -182q196 0 310 102q110 101 110 254z" />
    <glyph glyph-name="uni0994" unicode="&#x994;" horiz-adv-x="1533" 
d="M1493 1059q0 251 -188 389q-190 137 -512 164l-209 18q-155 14 -308 70v-115q142 -55 299 -67l201 -17q272 -21 434 -131q158 -109 158 -311q0 -178 -98 -279q-99 -102 -262 -102q-20 0 -111 6q-2 2 -10 2q85 26 143 115q53 86 53 198q0 133 -86 228q-86 92 -239 92
q-154 0 -238 -90t-84 -223q0 -57 17 -127h120q-12 71 -12 125q0 93 51 147q52 55 146 55q97 0 149 -55q51 -57 51 -152q0 -108 -59 -182q-61 -76 -192 -76h-62v-112h55q143 0 228 -54t82 -169q-3 -117 -80 -185q-79 -67 -213 -67q-194 0 -311 141q-117 138 -117 405
q0 60 6 125h-121q-10 -78 -10 -127q0 -292 147 -473q147 -182 406 -182q195 0 309 102q111 102 111 254q0 103 -50 174q172 18 291 152q115 133 115 334z" />
    <glyph glyph-name="uni0995" unicode="&#x995;" horiz-adv-x="1630" 
d="M1458 575q0 201 -153 330q-152 128 -402 131v150h686v112h-1589v-112h778v-154q-161 -28 -329 -133q-177 -109 -316 -242v-151l645 -506h125v924q185 0 309 -95q121 -95 121 -254q0 -247 -225 -247h-27v-119q8 -2 39 -2q139 0 240 96q98 94 98 272zM236 582
q298 279 542 336v-766z" />
    <glyph glyph-name="uni0996" unicode="&#x996;" horiz-adv-x="1378" 
d="M1092 1186h245v112h-245v175h-125v-1332l-643 383q183 20 292 154q105 129 105 303q0 129 -51 317h-117q8 -49 8 -124q0 -105 -53 -164q-57 -60 -143 -60q-87 0 -138 54q-51 51 -51 145q0 55 23 149h-121q-27 -74 -27 -149q0 -135 82 -223t223 -88q176 0 250 151v-8
q0 -154 -96 -250q-94 -99 -260 -102h-141v-125l858 -504h125v1186z" />
    <glyph glyph-name="uni0997" unicode="&#x997;" horiz-adv-x="1269" 
d="M983 1186h246v112h-246v175h-125v-308q-92 154 -321 154q-184 0 -289 -123t-105 -285v-100h160q105 0 164 -47q55 -46 55 -135q0 -187 -219 -187q-99 0 -164 9v-105q91 -16 164 -16q156 0 250 82q94 79 94 217q0 132 -92 215q-95 80 -250 80h-37q3 127 80 204
q75 78 211 78q147 0 223 -94t76 -250v-862h125v1186z" />
    <glyph glyph-name="uni0998" unicode="&#x998;" horiz-adv-x="1271" 
d="M662 807q-75 -16 -168 -16q-234 0 -234 182q0 101 68 157q65 56 182 56h350v-1051l-561 289l363 256v127zM1231 1298h-1231v-112h240q-105 -76 -105 -213q0 -136 101 -209q98 -73 235 -76q-136 -89 -297 -207v-139l686 -342h125v1186h246v112z" />
    <glyph glyph-name="uni0999" unicode="&#x999;" horiz-adv-x="1280" 
d="M788 885q-52 0 -114 16v162q0 66 37 106q34 37 100 37q77 0 129 -43q49 -43 49 -112q0 -81 -51 -123q-52 -43 -150 -43zM1239 528q0 139 -45 230q-117 -74 -199 -109q-85 -39 -184 -39q-137 0 -137 131v43q56 -12 117 -12q145 0 233 76t88 203q0 115 -86 192
q-85 76 -215 76q-114 0 -186 -72q-74 -71 -74 -184l-2 -105q-165 112 -223 340h-326v-112h238q94 -254 311 -359v-86q0 -119 76 -180q72 -63 186 -63q162 0 307 92q0 -19 2 -33v-27q0 -179 -98 -286q-99 -111 -281 -111q-213 0 -333 150q-121 151 -121 397q0 80 2 98h-123
q-4 -86 -4 -100q0 -287 160 -473q156 -185 419 -185q235 0 367 144q131 143 131 364z" />
    <glyph glyph-name="uni099A" unicode="&#x99a;" horiz-adv-x="1212" 
d="M1010 547q0 141 -84 225q-83 80 -256 143l-299 111v160h800v112h-1171v-112h246v-881q0 -151 78 -235t208 -84q208 0 342 180q136 180 136 381zM532 98q-161 0 -161 207v588l270 -100q130 -49 188 -101q56 -53 56 -145q0 -161 -105 -305t-248 -144z" />
    <glyph glyph-name="uni099B" unicode="&#x99b;" horiz-adv-x="1269" 
d="M1028 -27l-293 156q-102 54 -262 127q174 6 301 45q131 38 219 129q90 93 90 229q0 132 -84 207q-80 71 -260 119l-227 59l-20 5l-173 38v99h910v112h-1229v-112h195v-481q0 -103 61 -158t158 -55q124 0 217 96q92 95 92 213q0 27 -10 69q119 -30 182 -75t63 -131
q0 -302 -604 -302q-14 0 -53 2t-57 3v-119l583 -301h201v26zM414 604q-95 0 -95 101v266l144 -33q71 -17 110 -47q31 -31 31 -86q0 -74 -57 -137q-58 -64 -133 -64z" />
    <glyph glyph-name="uni099C" unicode="&#x99c;" horiz-adv-x="1794" 
d="M1593 0q-49 244 -49 418q0 218 55 428q-460 79 -610 340h764v112h-1753v-112h715q-178 -153 -178 -359q0 -131 81 -206q84 -78 222 -78q136 0 237 37q2 -12 2 -50q0 -179 -92 -288q-95 -109 -278 -109q-203 0 -312 158q-110 155 -110 401q0 68 2 86h-123q-4 -86 -4 -98
q0 -284 145 -473q144 -187 402 -187q233 0 362 144q127 142 127 364q0 120 -39 197q-151 -68 -299 -68q-198 0 -198 170q0 185 204 334q70 -146 234 -254q161 -106 358 -147q-37 -161 -37 -342q0 -204 47 -418h125z" />
    <glyph glyph-name="uni099D" unicode="&#x99d;" horiz-adv-x="1701" 
d="M903 485h170q124 0 170 -82q47 -83 47 -219v-41h125v1043h246v112h-246v175h-125v-971q-69 96 -219 96h-168v700h-903v-112h778v-156q-160 -40 -338 -143q-177 -106 -307 -230v-151l645 -506h125v485zM240 584q119 111 268 202q141 87 270 125v-757z" />
    <glyph glyph-name="uni099E" unicode="&#x99e;" horiz-adv-x="1703" 
d="M348 844q0 -152 88 -228q87 -75 244 -75q58 0 115 8v108q-62 -4 -103 -4q-108 0 -164 41q-55 40 -55 150q0 148 102 256q100 106 228 106q86 0 125 -51t39 -164v-798q-32 38 -93 38q-65 0 -192 -38q-137 -41 -205 -41q-96 0 -147 63q-54 63 -54 172q0 12 1 26.5t2 35
t2 34.5h-121q-6 -41 -6 -96q0 -164 86 -256t237 -92q95 0 238 41q140 41 170 41q82 0 82 -98v-23h125v272q92 -127 268 -127q133 0 219 80q84 78 84 201q0 102 -57 168q-60 70 -140 90q80 20 140 90q57 66 57 168q0 121 -86 201q-90 78 -223 78q-176 0 -269 -140
q-38 238 -282 238q-190 0 -322 -141q-133 -145 -133 -334zM1354 258q-114 0 -187 76q-75 72 -75 196v306q0 126 69 198q68 74 180 74q88 0 144 -47q53 -50 53 -131q0 -86 -57 -137q-58 -52 -174 -52h-68v-116h68q115 0 174 -50q57 -51 57 -137q0 -81 -51 -129
q-51 -51 -133 -51z" />
    <glyph glyph-name="uni099F" unicode="&#x99f;" horiz-adv-x="1222" 
d="M1010 555q0 157 -99 252q-98 94 -274 94q-47 0 -94 -6v-113q41 6 82 6q260 0 260 -233q0 -168 -97 -297q-94 -125 -245 -125q-79 0 -125 49q-47 50 -47 144v860h811v112h-189q15 58 15 125q0 105 -62 176q-61 70 -194 70q-59 0 -170 -24q-111 -27 -172 -27
q-107 0 -205 31v-103q77 -41 207 -41q77 0 182 27q102 24 160 24q135 0 135 -143q0 -65 -12 -115h-877v-112h246v-860q0 -145 82 -224q82 -82 215 -82q213 0 340 160t127 375z" />
    <glyph glyph-name="uni09A0" unicode="&#x9a0;" horiz-adv-x="1280" 
d="M1059 516q0 213 -207 514l-113 156h500v112h-580q-92 133 -92 215q0 109 138 109q35 0 81 -4v108q-74 9 -108 9q-102 0 -168 -60q-68 -62 -68 -162q0 -93 82 -215h-524v-112h563v-211q0 -225 -223 -225h-154q-16 -91 -16 -199q0 -224 125 -367q122 -143 328 -143
q203 0 321 133q115 133 115 342zM623 154q-151 0 -240 108q-90 110 -90 289q0 8 4 86h47q160 0 246 86q84 87 84 252q0 35 -4 117l90 -127q172 -242 172 -449q0 -170 -76 -264q-76 -98 -233 -98z" />
    <glyph glyph-name="uni09A1" unicode="&#x9a1;" horiz-adv-x="1443" 
d="M1239 578q0 170 -45 286q-113 -72 -121 -76q-43 -26 -106 -49q-65 -24 -125 -24q-127 0 -127 143v328h688v112h-1403v-112h590v-328q0 -117 69 -186q70 -70 179 -70q135 0 272 88q6 -41 6 -100q0 -199 -98 -318q-100 -118 -287 -118q-208 0 -317 151q-107 149 -107 391
q0 105 8 170h-122q-13 -96 -13 -170q0 -289 146 -473q144 -182 405 -182q238 0 375 152q133 151 133 385z" />
    <glyph glyph-name="uni09A2" unicode="&#x9a2;" horiz-adv-x="1222" 
d="M1010 555q0 157 -99 252q-98 94 -274 94q-47 0 -94 -6v-113q41 6 82 6q260 0 260 -233q0 -168 -97 -297q-94 -125 -245 -125q-79 0 -125 49q-47 50 -47 144v860h811v112h-1182v-112h246v-860q0 -145 82 -224q82 -82 215 -82q213 0 340 160t127 375z" />
    <glyph glyph-name="uni09A3" unicode="&#x9a3;" horiz-adv-x="1247" 
d="M961 1186h245v112h-245v175h-125v-295q-102 141 -306 141q-170 0 -272 -102q-104 -101 -104 -252q0 -166 100 -263q101 -98 264 -98q75 0 141 17v108q-71 -12 -133 -12q-117 0 -180 63q-65 65 -65 185q0 116 69 182q68 65 180 65q157 0 232 -100q74 -103 74 -225v-887
h125v1186z" />
    <glyph glyph-name="uni09A4" unicode="&#x9a4;" horiz-adv-x="1497" 
d="M1260 643q0 157 -86 275q-88 114 -232 114q-143 0 -221 -90q-76 -91 -76 -223q0 -85 31 -164h117q-23 94 -23 162q0 90 45 147q44 56 127 56q101 0 148 -80q45 -77 45 -197q0 -197 -101 -319q-102 -123 -291 -123q-205 0 -313 164q-108 163 -108 405q0 122 12 205h-123
q-14 -83 -14 -205q0 -130 30 -250q29 -116 95 -217q63 -97 172 -156t249 -59q142 0 244 51q102 48 162 133q58 86 84 177q27 92 27 194zM1456 1298h-1456v-112h1456v112z" />
    <glyph glyph-name="uni09A5" unicode="&#x9a5;" horiz-adv-x="1415" 
d="M1128 1186h246v112h-246v175h-124v-1336l-642 410q198 9 308 125q108 114 108 301q0 142 -90 246q-87 100 -239 100q-148 0 -230 -88q-86 -89 -86 -223q0 -76 27 -150h121q-23 94 -23 150q0 91 51 145q53 53 140 53q99 0 151 -61q53 -62 53 -172q0 -315 -319 -324h-168
v-125l838 -524h124v1186z" />
    <glyph glyph-name="uni09A6" unicode="&#x9a6;" horiz-adv-x="1200" 
d="M330 334q93 118 233 252q140 131 246 200v-786h125v926h-125q-91 -42 -236 -166q-152 -130 -243 -240v666h829v112h-1159v-112h205v-852h125z" />
    <glyph glyph-name="uni09A7" unicode="&#x9a7;" horiz-adv-x="1271" 
d="M1231 1298h-371v-372q-90 -52 -133 -80q-94 -55 -229 -55q-104 0 -166 53q-64 52 -64 151q0 101 64 156q62 53 166 53q71 0 129 -10v109q-52 14 -121 14q-164 0 -264 -86q-99 -89 -99 -236q0 -136 97 -221q95 -83 229 -86q-222 -139 -295 -194v-152l686 -342h125v1186
h246v112zM301 424l559 367v-656z" />
    <glyph glyph-name="uni09A8" unicode="&#x9a8;" horiz-adv-x="1269" 
d="M983 1186h246v112h-1229v-112h858v-703q-50 139 -145 222t-236 83q-157 0 -252 -102q-94 -101 -94 -258q0 -51 8 -92h123q-6 37 -6 88q0 114 59 182q60 66 166 66q315 0 377 -662v-10h125v1186z" />
    <glyph glyph-name="uni09AA" unicode="&#x9aa;" horiz-adv-x="1269" 
d="M152 348l706 440v-788h125v1186h246v112h-246v175h-125v-306q-96 152 -315 152q-183 0 -291 -123q-109 -124 -109 -285v-82q99 -39 148 -77q50 -42 86 -121l-225 -142v-141zM268 907q0 134 74 217q73 82 213 82q133 0 209 -76q75 -75 90 -202l-379 -238q-64 145 -207 217
z" />
    <glyph glyph-name="uni09AB" unicode="&#x9ab;" horiz-adv-x="1712" 
d="M1540 575q0 202 -154 332q-156 129 -401 129h-125v-899l-567 312l369 290v144l-398 303h1407v112h-1671v-112h174v-92l385 -287l-385 -291v-151l686 -365h125v924q185 0 309 -95q121 -95 121 -254q0 -247 -225 -247h-27v-119q8 -2 39 -2q139 0 240 96q98 94 98 272z" />
    <glyph glyph-name="uni09AC" unicode="&#x9ac;" horiz-adv-x="1189" 
d="M1149 1298h-1149v-112h778v-156q-160 -40 -338 -143q-177 -106 -307 -230v-151l645 -506h125v1186h246v112zM240 584q119 111 268 202q141 87 270 125v-757z" />
    <glyph glyph-name="uni09AD" unicode="&#x9ad;" horiz-adv-x="1417" 
d="M1212 532q0 104 -36 195q-95 -62 -166 -86q-77 -25 -164 -25q-94 0 -146 43q-53 41 -53 121q0 79 53 123q53 41 142 41q59 0 114 -8v106q-56 15 -120 15q-133 0 -222 -74t-92 -203q0 -126 86 -200q82 -76 228 -76q144 0 256 59q2 -8 2 -28q0 -172 -97 -277
q-94 -104 -280 -104q-208 0 -322 147t-114 391q0 29 4 115h-123q-6 -49 -6 -117q0 -277 151 -463q149 -186 410 -186q234 0 366 141q129 138 129 350zM1376 1298h-1376v-112h1376v112z" />
    <glyph glyph-name="uni09AE" unicode="&#x9ae;" horiz-adv-x="1331" 
d="M1290 1298h-1290v-112h139v-103q305 0 320 -378q-130 -27 -209 -121q-80 -95 -80 -228q0 -174 106 -264q106 -92 271 -92q65 0 129 12v111q-78 -10 -125 -10q-113 0 -182 63q-72 63 -72 180q0 118 74 183q72 63 194 63q171 0 262 -102q93 -104 93 -289v-211h124v1186h246
v112zM920 535q-103 171 -338 180q-3 100 -33 203q-30 89 -100 165q-73 76 -177 103h648v-651z" />
    <glyph glyph-name="uni09AF" unicode="&#x9af;" horiz-adv-x="1271" 
d="M264 1186h596v-1049l-567 312l369 290v144zM1231 1298h-1231v-112h174v-92l385 -287l-385 -291v-151l686 -365h125v1186h246v112z" />
    <glyph glyph-name="uni09B0" unicode="&#x9b0;" horiz-adv-x="1189" 
d="M1149 1298h-1149v-112h778v-156q-160 -40 -338 -143q-177 -106 -307 -230v-151l645 -506h125v1186h246v112zM301 137q-27 27 -70 27q-40 0 -67 -27t-27 -69q0 -41 27 -68t67 -27q43 0 70 27q29 29 29 68q0 40 -29 69zM240 584q119 111 268 202q141 87 270 125v-757z" />
    <glyph glyph-name="uni09B2" unicode="&#x9b2;" horiz-adv-x="1583" 
d="M1296 1186h246v112h-1542v-112h1171v-322q-59 103 -184 103q-91 0 -156 -56q-67 -58 -88 -151q-21 94 -92 147q-73 54 -180 54q-149 0 -238 -103q-88 -101 -88 -250q0 -175 103 -270q101 -98 264 -98q94 0 168 18v111q-100 -17 -160 -17q-109 0 -180 68q-70 67 -70 188
q0 112 58 176t151 64q205 0 205 -264v-35h125v33q0 272 188 272q96 0 136 -70q38 -66 38 -149v-635h125v1186z" />
    <glyph glyph-name="uni09B6" unicode="&#x9b6;" horiz-adv-x="1527" 
d="M1241 1186h246v112h-246v175h-125v-275q-95 121 -278 121q-213 0 -308 -160q-103 139 -313 139h-217v-112l217 -2q254 0 254 -219q0 -122 -57 -185t-172 -63q-60 0 -101 8v-111q52 -10 109 -10q195 0 285 146q90 -146 282 -146q57 0 98 8v111q-47 -6 -90 -6
q-108 0 -168 63q-61 64 -61 185q0 113 66 182q65 65 176 65q107 0 174 -55q65 -56 86 -123q18 -68 18 -147v-887h125v1186z" />
    <glyph glyph-name="uni09B7" unicode="&#x9b7;" horiz-adv-x="1271" 
d="M264 1186h596v-455l-198 152zM1231 1298h-1231v-112h174v-92l385 -287l-385 -291v-151l686 -365h125v1186h246v112zM293 449l364 286l203 -149v-449z" />
    <glyph glyph-name="uni09B8" unicode="&#x9b8;" horiz-adv-x="1290" 
d="M1004 1186h245v112h-1249v-112h133v-103q164 0 264 -112q101 -113 119 -301q-20 -22 -76 -101q-51 -74 -96 -110q-44 -35 -100 -35q-39 0 -119 22v-112q73 -31 135 -31q68 0 127 35q54 32 96 86q47 61 74 102q36 51 80 84q47 35 96 35q70 0 109 -51q37 -52 37 -129v-465
h125v1186zM717 764q-46 0 -92 -16q-23 147 -115 274q-92 120 -240 164h609v-506q-53 84 -162 84z" />
    <glyph glyph-name="uni09B9" unicode="&#x9b9;" horiz-adv-x="1048" 
d="M821 -8l-424 305q200 0 310 113t110 284q0 146 -90 242q-93 96 -240 96t-229 -88q-86 -89 -86 -223q0 -77 27 -150h120q-22 90 -22 150q0 91 51 145q54 54 139 54q95 0 150 -58t55 -168q0 -282 -307 -291h-170v-114l426 -309h180v12zM1008 1298h-1008v-112h1008v112z" />
    <glyph glyph-name="uni09BC" unicode="&#x9bc;" horiz-adv-x="40" 
d="M-403 -190q-26 26 -70 26q-42 0 -68 -26t-26 -70q0 -42 26 -68t68 -26q44 0 70 26q28 28 28 68q0 42 -28 70z" />
    <glyph glyph-name="uni09BD" unicode="&#x9bd;" horiz-adv-x="862" 
d="M821 -8l-424 305q200 0 310 113t110 284q0 146 -90 242q-93 96 -240 96q-70 143 -159 205q-88 61 -232 61h-96v-112h96q98 0 154 -39q52 -38 112 -135q-90 -35 -139 -111q-51 -74 -51 -180q0 -77 27 -150h120q-22 90 -22 150q0 91 51 145q54 54 139 54q95 0 150 -58
t55 -168q0 -282 -307 -291h-170v-114l426 -309h180v12z" />
    <glyph glyph-name="uni09BE" unicode="&#x9be;" horiz-adv-x="657" 
d="M616 1298h-245v175h-125v-68q0 -93 14 -197q-47 90 -151 90h-109v-112h109q137 0 137 -176v-1010h125v1186h245v112z" />
    <glyph glyph-name="uni09BF" unicode="&#x9bf;" horiz-adv-x="1275" 
d="M616 1298h-245v62q0 154 69 229q67 76 256 76q267 0 539 -86v113q-300 86 -539 86q-245 0 -348 -109q-102 -108 -102 -307v-64h-246v-112h246v-1186h125v1186h245v112z" />
    <glyph glyph-name="uni09C0" unicode="&#x9c0;" horiz-adv-x="657" 
d="M616 1298h-245v50q0 240 -215 393q-219 151 -514 151q-177 0 -283 -59q-104 -61 -104 -172q0 -117 104 -172t276 -55q116 0 201 14v104q-99 -8 -194 -8q-263 0 -263 117q0 119 263 119q256 0 432 -111q172 -114 172 -319v-52h-246v-112h246v-1186h125v1186h245v112z" />
    <glyph glyph-name="uni09C1" unicode="&#x9c1;" horiz-adv-x="350" 
d="M-233 -360q-69 0 -107 38q-41 38 -41 99q0 69 47 104t123 35q83 0 168 -43q-9 -91 -57 -164q-48 -69 -133 -69zM309 -287q-242 303 -518 303q-129 0 -207 -63q-80 -65 -80 -176q0 -106 76 -170q74 -68 187 -68q108 0 186 78q75 75 100 199q135 -94 256 -252v149z" />
    <glyph glyph-name="uni09C2" unicode="&#x9c2;" horiz-adv-x="212" 
d="M-629 -217q0 -105 80 -176q80 -74 203 -74q185 0 303 160l215 -142v117l-244 168q-57 -101 -118 -151q-66 -54 -156 -54q-78 0 -125 41t-47 111q0 78 53 119t141 41q96 0 201 -31v94q-90 35 -201 35q-137 0 -219 -70q-86 -71 -86 -188z" />
    <glyph glyph-name="uni09C3" unicode="&#x9c3;" horiz-adv-x="118" 
d="M-328 -201l205 201l-108 45l-215 -209v-104l524 -207v110z" />
    <glyph glyph-name="uni09C4" unicode="&#x9c4;" horiz-adv-x="118" 
d="M-307 -487l119 116l266 -104v110l-406 164l205 201l-108 45l-215 -209v-104l147 -58l-127 -125v-104l424 -166v111z" />
    <glyph glyph-name="uni09C7" unicode="&#x9c7;" horiz-adv-x="698" 
d="M604 96h-37q-258 0 -258 439q0 105 17 231q15 106 53 207q36 97 102 155q64 58 156 58h20v112h-657v-112h389q-205 -175 -205 -651q3 -249 92 -400q86 -151 277 -151q41 0 51 2v110z" />
    <glyph glyph-name="uni09C8" unicode="&#x9c8;" horiz-adv-x="698" 
d="M604 96h-37q-258 0 -258 439q0 105 17 231q15 106 53 207q36 97 102 155q64 58 156 58h20v112h-49q15 58 15 125q0 105 -62 176q-61 70 -194 70q-65 0 -154 -24q-91 -27 -135 -27q-55 0 -131 29v-107q75 -35 137 -35q52 0 141 27q88 24 144 24q135 0 135 -143
q0 -65 -12 -115h-492v-112h389q-205 -175 -205 -651q3 -249 92 -400q86 -151 277 -151q41 0 51 2v110z" />
    <glyph glyph-name="uni09CB" unicode="&#x9cb;" horiz-adv-x="2603" 
d="M1202 184q0 37 -24 64q-26 26 -66 26q-39 0 -65 -26q-27 -27 -27 -64q0 -40 27 -67t65 -27q39 0 66 27q24 27 24 67zM969 403q-28 25 -66 25t-63 -25q-27 -27 -27 -65q0 -40 27 -64q23 -26 63 -26t66 26q24 24 24 64q0 38 -24 65zM887 575q0 40 -25 68q-28 25 -65 25
q-40 0 -64 -27q-26 -26 -26 -66t26 -63q25 -25 64 -25q37 0 65 25q25 25 25 63zM1438 217q-28 25 -68 25q-38 0 -63 -25q-27 -24 -27 -65q0 -42 27 -66q25 -25 63 -25q41 0 68 27q24 24 24 64q0 38 -24 65zM891 899q-28 25 -64 25q-39 0 -67 -25q-27 -27 -27 -65
q0 -40 27 -64q27 -27 67 -27q37 0 64 27q27 24 27 64q0 38 -27 65zM1683 326q-27 24 -65 24q-40 0 -64 -24q-26 -26 -26 -66t26 -63q24 -27 64 -27q38 0 65 27q27 24 27 63t-27 66zM1081 1059q0 38 -24 65q-28 25 -66 25t-63 -25q-27 -27 -27 -65q0 -42 27 -66
q23 -26 63 -26t66 26q24 24 24 66zM1833 526q-27 27 -64 27q-41 0 -65 -27q-27 -27 -27 -65q0 -40 27 -64q26 -26 65 -26q38 0 64 26q25 25 25 64q0 37 -25 65zM1298 1212q-25 25 -65 25q-41 0 -66 -25q-24 -24 -24 -65q0 -42 24 -66t66 -24q41 0 65 24q25 25 25 66
q0 40 -25 65zM1853 801q-27 24 -65 24q-40 0 -64 -24q-26 -26 -26 -66t26 -63q24 -27 64 -27q38 0 65 27q25 25 25 63t-25 66zM1581 1116q0 40 -25 68q-24 24 -63 24q-40 0 -66 -26t-26 -66q0 -37 26 -63q27 -27 66 -27q36 0 63 27q25 28 25 63zM1776 977q0 39 -25 67
q-28 25 -65 25q-40 0 -64 -27q-27 -27 -27 -65q0 -40 27 -64q23 -26 64 -26q39 0 65 26q25 25 25 64zM604 96h-37q-258 0 -258 439q0 105 17 231q15 106 53 207q36 97 102 155q64 58 156 58h20v112h-657v-112h389q-205 -175 -205 -651q3 -249 92 -400q86 -151 277 -151
q41 0 51 2v110zM2562 1298h-246v175h-125v-68q0 -86 15 -197q-47 90 -152 90h-108v-112h108q137 0 137 -176v-1010h125v1186h246v112z" />
    <glyph glyph-name="uni09CC" unicode="&#x9cc;" horiz-adv-x="2603" 
d="M1202 184q0 37 -24 64q-26 26 -66 26q-39 0 -65 -26q-27 -27 -27 -64q0 -40 27 -67t65 -27q39 0 66 27q24 27 24 67zM969 403q-28 25 -66 25t-63 -25q-27 -27 -27 -65q0 -40 27 -64q23 -26 63 -26t66 26q24 24 24 64q0 38 -24 65zM887 575q0 40 -25 68q-28 25 -65 25
q-40 0 -64 -27q-26 -26 -26 -66t26 -63q25 -25 64 -25q37 0 65 25q25 25 25 63zM1438 217q-28 25 -68 25q-38 0 -63 -25q-27 -24 -27 -65q0 -42 27 -66q25 -25 63 -25q41 0 68 27q24 24 24 64q0 38 -24 65zM891 899q-28 25 -64 25q-39 0 -67 -25q-27 -27 -27 -65
q0 -40 27 -64q27 -27 67 -27q37 0 64 27q27 24 27 64q0 38 -27 65zM1683 326q-27 24 -65 24q-40 0 -64 -24q-26 -26 -26 -66t26 -63q24 -27 64 -27q38 0 65 27q27 24 27 63t-27 66zM1081 1059q0 38 -24 65q-28 25 -66 25t-63 -25q-27 -27 -27 -65q0 -42 27 -66
q23 -26 63 -26t66 26q24 24 24 66zM1833 526q-27 27 -64 27q-41 0 -65 -27q-27 -27 -27 -65q0 -40 27 -64q26 -26 65 -26q38 0 64 26q25 25 25 64q0 37 -25 65zM1298 1212q-25 25 -65 25q-41 0 -66 -25q-24 -24 -24 -65q0 -42 24 -66t66 -24q41 0 65 24q25 25 25 66
q0 40 -25 65zM1853 801q-27 24 -65 24q-40 0 -64 -24q-26 -26 -26 -66t26 -63q24 -27 64 -27q38 0 65 27q25 25 25 63t-25 66zM1581 1116q0 40 -25 68q-24 24 -63 24q-40 0 -66 -26t-26 -66q0 -37 26 -63q27 -27 66 -27q36 0 63 27q25 28 25 63zM1776 977q0 39 -25 67
q-28 25 -65 25q-40 0 -64 -27q-27 -27 -27 -65q0 -40 27 -64q23 -26 64 -26q39 0 65 26q25 25 25 64zM604 96h-37q-258 0 -258 439q0 105 17 231q15 106 53 207q36 97 102 155q64 58 156 58h20v112h-657v-112h389q-205 -175 -205 -651q3 -249 92 -400q86 -151 277 -151
q41 0 51 2v110zM1946 1186h245v-1186h125v1186h246v112h-242q15 58 15 134q0 102 -62 170q-61 67 -194 67q-68 0 -162 -20q-102 -21 -143 -21q-62 0 -160 31v-103q76 -40 166 -40q55 0 149 20t152 20q135 0 135 -135q0 -59 -12 -123h-258v-112z" />
    <glyph glyph-name="uni09CD" unicode="&#x9cd;" horiz-adv-x="147" 
d="M-246 -111l236 -258h116v9l-229 258h-123v-9z" />
    <glyph glyph-name="uni09CE" unicode="&#x9ce;" horiz-adv-x="1026" 
d="M985 106q0 104 -37 185t-96 137q-49 46 -131 104l-141 93q-90 60 -131 94q-61 52 -97 119q-37 70 -37 155q0 84 54 150q52 61 157 61q98 0 150 -49q53 -53 53 -147q0 -70 -22 -131h122q21 47 21 131q0 144 -90 225q-90 78 -234 78q-149 0 -241 -92t-92 -226
q0 -105 36 -184t97 -137q57 -54 131 -103q23 -15 71 -45.5t72 -46.5q81 -54 129 -94q59 -50 96 -119q37 -70 37 -158v-106h123v106z" />
    <glyph glyph-name="uni09D7" unicode="&#x9d7;" horiz-adv-x="657" 
d="M0 1186h246v-1186h125v1186h245v112h-241q14 55 14 134q0 103 -61 170t-195 67q-68 0 -162 -20q-102 -21 -143 -21q-62 0 -160 31v-103q76 -40 166 -40q56 0 150 20t151 20q135 0 135 -135q0 -59 -12 -123h-258v-112z" />
    <glyph glyph-name="uni09DC" unicode="&#x9dc;" horiz-adv-x="1443" 
d="M1239 578q0 170 -45 286q-113 -72 -121 -76q-43 -26 -106 -49q-65 -24 -125 -24q-127 0 -127 143v328h688v112h-1403v-112h590v-328q0 -117 69 -186q70 -70 179 -70q135 0 272 88q6 -41 6 -100q0 -199 -98 -318q-100 -118 -287 -118q-208 0 -317 151q-107 149 -107 391
q0 105 8 170h-122q-13 -96 -13 -170q0 -289 146 -473q144 -182 405 -182q238 0 375 152q133 151 133 385zM774 -150q-27 27 -69 27q-41 0 -68 -27t-27 -69q0 -41 27 -68q26 -26 68 -26q43 0 69 26q29 29 29 68q0 40 -29 69z" />
    <glyph glyph-name="uni09DD" unicode="&#x9dd;" horiz-adv-x="1222" 
d="M1010 555q0 157 -99 252q-98 94 -274 94q-47 0 -94 -6v-113q41 6 82 6q260 0 260 -233q0 -168 -97 -297q-94 -125 -245 -125q-79 0 -125 49q-47 50 -47 144v860h811v112h-1182v-112h246v-860q0 -145 82 -224q82 -82 215 -82q213 0 340 160t127 375zM614 -170
q-27 27 -69 27q-41 0 -68 -27q-26 -26 -26 -70q0 -41 26 -67q27 -27 68 -27q42 0 69 27q29 29 29 67q0 41 -29 70z" />
    <glyph glyph-name="uni09DF" unicode="&#x9df;" horiz-adv-x="1271" 
d="M264 1186h596v-1049l-567 312l369 290v144zM1231 1298h-1231v-112h174v-92l385 -287l-385 -291v-151l686 -365h125v1186h246v112zM432 14q-27 27 -70 27q-40 0 -67 -27t-27 -69q0 -41 27 -68t67 -27q43 0 70 27q29 29 29 68q0 40 -29 69z" />
    <glyph glyph-name="uni09E0" unicode="&#x9e0;" horiz-adv-x="1742" 
d="M369 4l155 154l295 -158h125v485h170q124 0 170 -82q47 -83 47 -219v-41h125v1043h246v112h-246v175h-125v-971q-69 96 -219 96h-168v700h-125v-356l-8 -4l-172 360h-117q8 -49 8 -124q0 -100 -47 -162t-133 -62q-88 0 -135 56q-45 54 -45 143q0 55 23 149h-121
q-27 -74 -27 -149q0 -138 82 -223q82 -88 215 -88q110 0 182 63q77 67 97 174l102 -192l-590 -367v-151l291 -154l-174 -170v-104l563 -254v110zM260 444l559 357v-664z" />
    <glyph glyph-name="uni09E1" unicode="&#x9e1;" horiz-adv-x="1452" 
d="M1411 -317q0 94 -39 159q-42 71 -96 105q-63 40 -115 67q-50 23 -100 66q-44 35 -47 80q143 149 143 362q0 136 -39 234q-41 103 -100 159q-69 62 -139 105q-64 39 -152 82q-78 35 -137 74q-64 40 -103 102q-38 58 -38 145q0 14 4 50h-121q-8 -21 -8 -66q0 -106 38 -178
q40 -76 103 -121q56 -42 137 -82q26 -14 76.5 -39t75.5 -39q78 -42 139 -88q58 -50 100 -135q39 -79 39 -199q0 -161 -94 -274q-92 -111 -256 -139q119 137 119 338q0 147 -94 245q-97 97 -242 97q-147 0 -238 -91q-92 -89 -92 -231q0 -101 37 -219h125q-37 112 -37 217
q0 97 53 156q52 55 152 55q102 0 158 -62q55 -64 55 -167q0 -102 -43 -195q-45 -98 -111 -152v-108q44 -6 82 -6q175 0 312 88q22 -54 90 -103q56 -41 129 -71q60 -27 112 -84q49 -58 49 -137q0 -148 -131 -197q43 64 43 137q0 92 -61 162q-63 72 -168 72q-106 0 -166 -66
q-61 -67 -61 -156q0 -49 20 -122h113q-21 59 -21 122q0 53 31 89q27 30 84 30q119 0 119 -131q0 -101 -86 -172v-82q46 -4 47 -4q156 0 254 94q96 93 96 224z" />
    <glyph glyph-name="uni09E2" unicode="&#x9e2;" horiz-adv-x="428" 
d="M387 -428q0 76 -33 129q-35 56 -78 88q-35 26 -92 59q-38 20 -80 56q-32 28 -32 67q0 3 4 31h-96q-7 -28 -7 -41q0 -59 33 -98q35 -44 80 -70q54 -32 92 -51q40 -23 78 -68q33 -39 33 -98q0 -116 -133 -151q43 55 43 129q0 80 -49 129t-130 49q-77 0 -124 -47
q-50 -47 -50 -123q0 -48 25 -109h96q-22 68 -22 107q0 80 75 80q37 0 60 -23q22 -22 22 -63q0 -107 -86 -160v-68q50 -4 52 -4q147 0 233 68t86 182z" />
    <glyph glyph-name="uni09E3" unicode="&#x9e3;" horiz-adv-x="567" 
d="M387 -428q0 76 -33 129q-35 56 -78 88q-35 26 -92 59q-38 20 -80 56q-32 28 -32 67q0 3 4 31h-96q-7 -28 -7 -41q0 -59 33 -98q35 -44 80 -70q54 -32 92 -51q40 -23 78 -68q33 -39 33 -98q0 -116 -133 -151q43 55 43 129q0 80 -49 129t-130 49q-77 0 -124 -47
q-50 -47 -50 -123q0 -48 25 -109h96q-22 68 -22 107q0 80 75 80q37 0 60 -23q22 -22 22 -63q0 -107 -86 -160v-68q50 -4 52 -4q111 0 190 39q1 -1 23 -12q5 -3 10.5 -7t8.5 -6.5t5 -3.5q4 -2 25 -16q15 -12 24 -18q3 -3 23 -19q14 -11 20 -20q2 -3 8 -10t9 -11
q12 -16 16 -22q1 -4 4 -12.5t4 -12.5q2 -10 2 -27q0 -85 -94 -106q27 40 27 90q0 59 -37 96q-38 35 -96 35q-57 0 -95 -35q-39 -33 -39 -90q0 -39 19 -82h76q-19 49 -19 80q0 60 58 60q25 0 45 -17q16 -16 16 -47q0 -79 -63 -119v-51q32 -4 36 -4q121 0 187 51q65 50 65 135
q0 57 -37 109q-43 60 -71 82q-20 16 -90 63q59 65 59 158z" />
    <glyph glyph-name="uni09E6" unicode="&#x9e6;" horiz-adv-x="1118" 
d="M950 319q127 130 127 332q0 201 -127 334q-129 129 -329 129q-202 0 -328 -129q-129 -132 -129 -334q0 -203 129 -332q125 -131 328 -131q201 0 329 131zM860 903q92 -103 92 -252q0 -150 -92 -250q-90 -100 -239 -100t-240 98q-94 98 -94 252q0 151 94 252q91 98 240 98
q148 0 239 -98z" />
    <glyph glyph-name="uni09E7" unicode="&#x9e7;" horiz-adv-x="999" 
d="M489 1298q-10 -45 -10 -75q0 -98 49 -183q48 -87 121 -153q117 -112 142 -137q67 -67 118 -164q49 -94 49 -203q0 -165 -102 -285q-103 -118 -311 -118q-177 0 -293 94q-119 94 -119 256q0 138 92 227q88 88 234 88v-123q-89 0 -146 -51t-57 -145q0 -114 84 -174
q85 -60 205 -60q291 0 291 291q0 84 -35 162q-36 73 -90 127q-12 12 -115 110q-58 52 -117 115q-55 58 -88 137q-37 81 -37 176q0 31 11 88h124z" />
    <glyph glyph-name="uni09E8" unicode="&#x9e8;" horiz-adv-x="985" 
d="M944 -6l-258 176q-112 77 -244 149q36 -8 93 -8q179 0 286 88q105 85 105 240q0 110 -56 190q-54 78 -135 125q-30 17 -85 45t-72 37q-81 38 -136 90t-55 119q0 35 6 53h-123q0 -12 -2 -24q-4 -28 -4 -31q0 -97 55 -164q52 -63 136 -106q28 -15 82 -41t75 -37
q83 -44 133 -102q56 -65 56 -154q0 -107 -74 -160t-195 -53q-198 0 -387 109v-152l799 -526v137z" />
    <glyph glyph-name="uni09E9" unicode="&#x9e9;" horiz-adv-x="1277" 
d="M1237 745q0 192 -78 324q-80 127 -239 127q-151 0 -224 -98t-73 -236q0 -134 36 -225h117q-28 115 -28 223q0 96 43 160q40 63 129 63q101 0 147 -94q45 -91 45 -244q0 -217 -100 -358q-103 -145 -291 -145q-211 0 -315 149q-107 149 -107 404q0 193 45 344h-123
q-47 -158 -47 -344q0 -135 31 -256q30 -119 94 -209q66 -96 172 -148q109 -53 250 -53q118 0 203 39q90 38 147 98q52 55 96 144q40 88 54 165q16 88 16 170z" />
    <glyph glyph-name="uni09EA" unicode="&#x9ea;" horiz-adv-x="1038" 
d="M961 1008q0 134 -111 223q-110 88 -279 88q-168 0 -278 -88q-113 -88 -113 -236q0 -203 221 -323q-124 -63 -196 -148q-72 -84 -72 -209q0 -156 127 -245q128 -90 309 -90q196 0 312 94t116 245q0 226 -313 361q135 66 205 139q72 75 72 189zM305 993q0 100 70 158
q66 57 196 57q119 0 193 -53q72 -54 72 -149q0 -38 -19 -74q-22 -39 -43 -60q-24 -27 -74 -53q-56 -32 -82 -45q-35 -17 -96 -43q-217 108 -217 262zM569 92q-131 0 -219 55q-92 56 -92 172q0 104 76 168q83 70 219 131q20 -9 47 -20t45 -19t31 -14q49 -25 94 -55
q57 -40 78 -82q24 -46 24 -104q0 -110 -81 -170q-83 -62 -222 -62z" />
    <glyph glyph-name="uni09EB" unicode="&#x9eb;" horiz-adv-x="1196" 
d="M256 627q0 197 127 342q125 143 365 205q-17 -60 -17 -107q0 -225 193 -262q-97 -48 -146 -148q-49 -101 -49 -219q0 -111 43 -198q42 -91 113 -138q-94 6 -176 27q-87 18 -170 59q-91 45 -146 97q-59 53 -98 145q-39 85 -39 197zM1110 862q-132 0 -197 47t-65 164
q0 89 39 168l-56 82q-149 -25 -266 -76q-120 -53 -219 -135q-99 -80 -156 -207q-57 -123 -57 -280q0 -303 225 -473q223 -168 592 -168q87 0 205 16v113q-149 0 -227 84t-78 237q0 151 68 240q66 87 192 96v92z" />
    <glyph glyph-name="uni09EC" unicode="&#x9ec;" horiz-adv-x="1280" 
d="M449 1319q-37 0 -89 -10v-109q37 6 68 6q162 0 162 -205v-143q0 -117 69 -186q70 -70 179 -70q135 0 272 88q6 -41 6 -100q0 -199 -98 -318q-100 -118 -287 -118q-208 0 -317 151q-107 149 -107 391q0 105 8 170h-122q-13 -96 -13 -170q0 -289 146 -473
q144 -182 405 -182q238 0 375 152q133 151 133 385q0 170 -45 286q-113 -72 -121 -76q-43 -26 -106 -49q-65 -24 -125 -24q-127 0 -127 143v143q0 137 -64 228q-66 90 -202 90z" />
    <glyph glyph-name="uni09ED" unicode="&#x9ed;" horiz-adv-x="1136" 
d="M866 999q0 155 -75 236q-78 84 -211 84q-211 0 -344 -160q-134 -166 -134 -360q0 -168 107 -269q106 -100 274 -100q142 0 258 55v-190q0 -137 64 -225q66 -93 203 -93q31 0 88 11v108q-38 -6 -68 -6q-162 0 -162 205v704zM492 553q-127 0 -195 65q-70 64 -70 181
q0 155 103 282q101 125 250 125q161 0 161 -207v-381q-115 -65 -249 -65z" />
    <glyph glyph-name="uni09EE" unicode="&#x9ee;" horiz-adv-x="1417" 
d="M311 297q0 -152 78 -236t209 -84q213 0 344 162q133 160 133 359q0 102 -43 184q18 72 111 72q233 0 233 198q0 34 -4 66h-112q2 -12 2 -57q0 -60 -25 -76q-29 -19 -115 -19q-112 0 -172 -84q-104 84 -256 84q-142 0 -258 -55v190q0 139 -63 228q-66 90 -203 90
q-36 0 -88 -10v-109q37 6 68 6q161 0 161 -205v-704zM598 90q-162 0 -162 207v381q115 65 250 65q128 0 197 -63q67 -64 67 -182q0 -157 -102 -283q-101 -125 -250 -125z" />
    <glyph glyph-name="uni09EF" unicode="&#x9ef;" horiz-adv-x="1261" 
d="M238 586q-105 -102 -105 -248q0 -149 86 -244q82 -94 219 -94v106q-80 3 -131 66q-51 60 -51 166q0 102 63 168q64 67 179 67q118 0 182 -67q63 -69 63 -178q0 -97 -38 -152q-42 -61 -103 -82v-94h141q229 0 355 123q123 120 123 311q0 121 -58 215q-62 100 -141 156
q-75 51 -186 115q-27 15 -185 98q-87 44 -143 106q-57 60 -57 133q0 13 4 41h-125q-6 -27 -6 -53q0 -81 43 -145q45 -71 110 -115q58 -42 152 -92q28 -15 82.5 -45t81.5 -45q90 -51 149 -94q70 -54 111 -121q43 -70 43 -154q0 -147 -82 -229t-221 -94q73 88 73 215
q0 152 -104 256q-107 104 -264 104q-160 0 -260 -100z" />
    <glyph glyph-name="uni09F0" unicode="&#x9f0;" horiz-adv-x="1189" 
d="M778 0h125v1186h246v112h-1149v-112h778v-156q-160 -40 -338 -143q-177 -106 -307 -230v-151zM489 776q155 94 289 135v-368zM240 584q78 73 141 116l397 -309v-237z" />
    <glyph glyph-name="uni09F1" unicode="&#x9f1;" horiz-adv-x="1189" 
d="M225 250v-164l275 -215v154zM1149 1298h-1149v-112h778v-156q-160 -40 -338 -143q-177 -106 -307 -230v-151l645 -506h125v1186h246v112zM240 584q119 111 268 202q141 87 270 125v-757z" />
    <glyph glyph-name="uni09F3" unicode="&#x9f3;" horiz-adv-x="1177" 
d="M170 1319q-36 0 -88 -10v-109q37 6 68 6q93 0 126 -45q35 -47 35 -139v-127h-186v-113h186v-456q0 -141 92 -224q88 -82 226 -82q219 0 362 162q146 166 146 373q0 157 -99 252q-98 94 -274 94q-48 0 -94 -6v-113q40 6 82 6q260 0 260 -233q0 -166 -115 -293
q-114 -129 -268 -129q-83 0 -137 51q-56 50 -56 142v456h111v113h-111v127q0 133 -61 215q-64 82 -205 82z" />
    <glyph glyph-name="uni09F4" unicode="&#x9f4;" horiz-adv-x="966" 
d="M801 1145q0 -350 -187 -567q-190 -220 -532 -220v-120q208 0 373 71q161 69 264 197q104 129 155 287q52 162 52 352h-125z" />
    <glyph glyph-name="uni09F5" unicode="&#x9f5;" horiz-adv-x="1275" 
d="M1110 1145q-9 -187 -70 -377q-62 -183 -182 -330q-120 -150 -283 -202q103 127 103 272q0 125 -74 211q-78 84 -215 84q-117 0 -192 -84q-74 -83 -74 -203q0 -34 6 -72h123q-4 50 -4 52q0 94 45 145q43 49 108 49q73 0 113 -49q39 -48 39 -131q0 -203 -152 -299v-113
q155 0 293 66q140 67 230 170q92 102 163 241q68 133 107 283q35 147 41 287h-125z" />
    <glyph glyph-name="uni09F6" unicode="&#x9f6;" horiz-adv-x="1277" 
d="M293 651q-6 27 -6 54q0 60 37 94q35 35 94 35q65 0 100 -35q35 -38 35 -97q0 -51 -39 -90q-39 -38 -94 -73q-70 -42 -113 -68q-54 -37 -94 -94q-39 -56 -39 -133q0 -118 94 -191q91 -73 236 -73t262 63q121 67 195 174q74 105 135 242q56 133 86 286q29 167 43 289
q12 135 12 264h-125q0 -170 -29 -378q-31 -198 -94 -388q-65 -195 -190 -317q-126 -123 -295 -123q-90 0 -146 39q-59 38 -59 115q0 48 39 90q42 42 96 74q93 58 111 71q54 37 94 94q39 53 39 125q0 113 -74 181q-77 65 -184 65q-118 0 -189 -65t-71 -174q0 -29 6 -56h127z
" />
    <glyph glyph-name="uni09F7" unicode="&#x9f7;" horiz-adv-x="370" 
d="M330 1298h-125v-1298h125v1298z" />
    <glyph glyph-name="uni09F8" unicode="&#x9f8;" horiz-adv-x="974" 
d="M934 926h-125q-91 -42 -236 -166q-152 -130 -243 -240v449q0 169 -62 329h-125q62 -148 62 -329v-635h125q93 118 233 252q140 131 246 200v-786h125v926z" />
    <glyph glyph-name="uni09F9" unicode="&#x9f9;" horiz-adv-x="1032" 
d="M154 645q0 -181 114 -295q112 -112 305 -112q194 0 306 112t112 295t-112 295q-113 113 -306 113q-192 0 -305 -113q-114 -114 -114 -295zM866 645q0 -134 -78 -215q-79 -82 -215 -82t-215 82q-79 79 -79 215q0 131 79 213t215 82q134 0 213 -82q80 -83 80 -213z" />
    <glyph glyph-name="uni09FA" unicode="&#x9fa;" horiz-adv-x="958" 
d="M799 905q0 -206 -94 -346q-95 -141 -277 -141q-91 0 -149 43q-58 40 -58 108h-119q0 -105 97 -184q95 -80 229 -80q214 0 352 178q138 179 138 422h-119zM481 651q-21 21 -55 21q-32 0 -53 -21t-21 -55q0 -32 21 -53t53 -21q36 0 57 21t21 53t-23 55z" />
    <glyph glyph-name="uni09FB" unicode="&#x9fb;" horiz-adv-x="958" 
d="M444 262q-192 158 -192 301q0 83 55 123q51 39 127 39q69 0 137 -10v108q-70 15 -137 15q-127 0 -213 -74q-88 -73 -88 -199q0 -122 72 -215q72 -94 205 -200l508 -404v121z" />
    <glyph glyph-name="uni200C" unicode="&#x200c;" horiz-adv-x="172" 
d="M131 1661h-96v-2132h96v2132z" />
    <glyph glyph-name="uni200D" unicode="&#x200d;" horiz-adv-x="387" 
d="M131 1300l148 -153l67 67l-196 195l196 197l-65 65l-197 -194l-195 194l-67 -67l194 -195l-190 -190l68 -68l141 149v-1771h96v1771z" />
    <glyph glyph-name="endash" unicode="&#x2013;" horiz-adv-x="1056" 
d="M1016 610h-852v-112h852v112z" />
    <glyph glyph-name="emdash" unicode="&#x2014;" horiz-adv-x="1636" 
d="M1595 614h-1431v-112h1431v112z" />
    <glyph glyph-name="quoteleft" unicode="&#x2018;" horiz-adv-x="423" 
d="M383 1423h-92l-236 -438h166z" />
    <glyph glyph-name="quoteright" unicode="&#x2019;" horiz-adv-x="425" 
d="M385 1423h-166l-162 -438h93z" />
    <glyph glyph-name="quotesinglbase" unicode="&#x201a;" horiz-adv-x="417" 
d="M377 188h-166l-162 -438h92z" />
    <glyph glyph-name="quotedblleft" unicode="&#x201c;" horiz-adv-x="696" 
d="M385 1423h-92l-236 -438h166zM655 1423h-92l-235 -438h166z" />
    <glyph glyph-name="quotedblright" unicode="&#x201d;" horiz-adv-x="696" 
d="M385 1423h-166l-162 -438h93zM655 1423h-166l-161 -438h92z" />
    <glyph glyph-name="quotedblbase" unicode="&#x201e;" horiz-adv-x="688" 
d="M377 188h-166l-162 -438h92zM647 188h-166l-162 -438h93z" />
    <glyph glyph-name="bullet" unicode="&#x2022;" horiz-adv-x="819" 
d="M700 924q-80 77 -194 77q-116 0 -193 -77t-77 -195q0 -117 77 -194q78 -78 195 -78q115 0 192 80q78 78 78 192t-78 195z" />
    <glyph glyph-name="ellipsis" unicode="&#x2026;" horiz-adv-x="1376" 
d="M283 164q-32 29 -76 29q-45 0 -74 -29q-31 -31 -31 -76q0 -46 31 -74q27 -30 74 -30q46 0 76 30q28 28 28 74q0 45 -28 76zM795 164q-32 29 -76 29q-45 0 -74 -29q-31 -31 -31 -76q0 -46 31 -74q27 -30 74 -30q46 0 76 30q28 28 28 74q0 45 -28 76zM1307 164
q-32 29 -76 29q-45 0 -74 -29q-31 -31 -31 -76q0 -46 31 -74q27 -30 74 -30q46 0 76 30q28 28 28 74q0 45 -28 76z" />
    <glyph glyph-name="guilsinglleft" unicode="&#x2039;" horiz-adv-x="593" 
d="M553 850h-143l-308 -332l308 -332h143l-301 332z" />
    <glyph glyph-name="guilsinglright" unicode="&#x203a;" horiz-adv-x="593" 
d="M246 850h-144l301 -332l-301 -332h144l307 332z" />
    <glyph glyph-name="fraction" unicode="&#x2044;" horiz-adv-x="999" 
d="M958 1458h-127l-933 -1458h125z" />
    <glyph glyph-name="Euro" unicode="&#x20ac;" horiz-adv-x="1191" 
d="M1151 147q-76 -43 -223 -43q-149 0 -264 95q-115 93 -162 264h420v100h-439q-6 49 -6 103q0 75 8 122h437v101h-416q46 166 160 254q115 86 272 86q139 0 213 -39v121q-74 39 -225 39q-205 0 -353 -121q-150 -123 -202 -340h-217v-101h200q-8 -47 -8 -122q0 -54 6 -103
h-198v-100h213q50 -223 198 -350q150 -129 346 -129q158 0 240 43v120z" />
    <glyph glyph-name="uni20B9" unicode="&#x20b9;" horiz-adv-x="1077" 
d="M381 541q206 0 332 102t135 268h188v117h-194q-24 162 -148 236h342v116h-862v-116h207q283 0 332 -236h-539v-117h547q-9 -121 -96 -190q-89 -68 -244 -68h-207v-112l418 -541h158l-426 541h57z" />
    <glyph glyph-name="trademark" unicode="&#x2122;" horiz-adv-x="1404" 
d="M690 1020q7 140 17 231l79 -231l115 -326h117l123 326q17 48 37 101.5t31 84t16 45.5l10 -231l22 -342h107l-47 702h-152l-137 -368q-25 -69 -70 -201l-63 201l-129 368h-148l-55 -702h109zM326 1286h174v94h-459v-94h180v-610h105v610z" />
    <glyph glyph-name="minus" unicode="&#x2212;" horiz-adv-x="1073" 
d="M1032 754h-868v-115h868v115z" />
    <glyph glyph-name="uni2215" unicode="&#x2215;" horiz-adv-x="999" 
d="M958 1458h-127l-933 -1458h125z" />
    <glyph glyph-name="uni25CC" unicode="&#x25cc;" horiz-adv-x="1343" 
d="M627 184q0 36 -25 64q-26 26 -65 26q-40 0 -66 -26q-27 -27 -27 -64q0 -40 27 -67t66 -27q38 0 65 27q25 28 25 67zM393 403q-28 25 -65 25q-39 0 -64 -25q-26 -26 -26 -65q0 -40 24 -64q23 -26 66 -26q39 0 65 26q25 25 25 64q0 37 -25 65zM311 575q0 41 -24 68
q-28 25 -66 25q-39 0 -63 -27q-27 -27 -27 -66t27 -63q25 -25 63 -25t66 25q24 24 24 63zM862 217q-28 25 -67 25q-41 0 -66 -25q-24 -24 -24 -65q0 -42 24 -66q25 -25 66 -25q40 0 67 27q25 25 25 64q0 37 -25 65zM315 899q-28 25 -63 25q-40 0 -68 -25q-26 -26 -26 -65
q0 -41 26 -64q27 -27 68 -27q36 0 63 27q27 24 27 64q0 38 -27 65zM1108 326q-27 24 -66 24t-63 -24q-27 -27 -27 -66t27 -63q24 -27 63 -27t66 27q27 24 27 63t-27 66zM506 1059q0 37 -25 65q-28 25 -65 25q-39 0 -64 -25q-26 -26 -26 -65q0 -43 26 -66q23 -26 64 -26
q39 0 65 26q25 25 25 66zM1257 526q-27 27 -63 27q-39 0 -66 -27q-26 -26 -26 -65q0 -41 26 -64q26 -26 66 -26q37 0 63 26q25 25 25 64q0 37 -25 65zM723 1212q-28 25 -66 25t-63 -25q-27 -24 -27 -65q0 -42 27 -66q24 -24 63 -24t66 24q25 25 25 66q0 40 -25 65zM1278 801
q-27 24 -66 24q-41 0 -65 -24q-25 -28 -25 -66t25 -63q24 -27 65 -27q39 0 66 27q25 25 25 63t-25 66zM1006 1116q0 40 -25 68q-24 24 -63 24q-43 0 -66 -26q-27 -27 -27 -66q0 -36 27 -63t66 -27q36 0 63 27q25 28 25 63zM1200 977q0 40 -24 67q-28 25 -66 25
q-39 0 -63 -27q-27 -27 -27 -65q0 -40 27 -64q23 -26 63 -26t66 26q24 24 24 64z" />
  </font>
</defs>
</svg>
